M48
;GenerationSoftware,Autodesk,EAGLE,9.6.2*%
;CreationDate,2025-05-08T19:54:50Z*%
FMAT,2
ICI,OFF
METRIC,TZ,000.000
T6C0.800
T5C0.813
T4C0.889
T3C1.000
T2C1.016
T1C2.300
%
G90
M71
T1
X86240Y12480
X86240Y25620
T2
X54610Y43180
X49530Y43180
X52070Y53340
X36830Y73660
X41910Y73660
X39370Y83820
T3
X151580Y37160
X112580Y37160
T4
X73940Y70680
X71400Y70680
X73940Y73220
X71400Y73220
X73940Y75760
X71400Y75760
X73940Y78300
X71400Y78300
X73940Y80840
X71400Y80840
X73940Y83380
X71400Y83380
X99340Y40200
X96800Y40200
X99340Y42740
X96800Y42740
X99340Y45280
X96800Y45280
X99340Y47820
X96800Y47820
X99340Y50360
X96800Y50360
X99340Y52900
X96800Y52900
X99340Y55440
X96800Y55440
X99340Y57980
X96800Y57980
X99340Y60520
X96800Y60520
X99340Y63060
X96800Y63060
X99340Y65600
X96800Y65600
X99340Y68140
X96800Y68140
X99340Y70680
X96800Y70680
X99340Y73220
X96800Y73220
X99340Y75760
X96800Y75760
X99340Y78300
X96800Y78300
X99340Y80840
X96800Y80840
X99340Y83380
X96800Y83380
X73940Y40200
X71400Y40200
X73940Y42740
X71400Y42740
X73940Y45280
X71400Y45280
X73940Y47820
X71400Y47820
X73940Y50360
X71400Y50360
X73940Y52900
X71400Y52900
X73940Y55440
X71400Y55440
X73940Y57980
X71400Y57980
X73940Y60520
X71400Y60520
X73940Y63060
X71400Y63060
X73940Y65600
X71400Y65600
X73940Y68140
X71400Y68140
T5
X13970Y90170
X16510Y90170
X16510Y48260
X19050Y48260
X35560Y44450
X38100Y44450
T6
X60340Y93340
X56515Y92075
X62865Y90805
X45100Y93340
X41275Y92075
X47625Y90805
M30