G04 EAGLE Gerber RS-274X export*
G75*
%MOMM*%
%FSLAX34Y34*%
%LPD*%
%INCopper Layer 15*%
%IPPOS*%
%AMOC8*
5,1,8,0,0,1.08239X$1,22.5*%
G01*
%ADD10C,1.137919*%
%ADD11C,1.422400*%
%ADD12C,1.120000*%
%ADD13C,1.244600*%

G36*
X1651118Y-52054D02*
X1651118Y-52054D01*
X1651237Y-52047D01*
X1651275Y-52034D01*
X1651316Y-52029D01*
X1651426Y-51986D01*
X1651539Y-51949D01*
X1651574Y-51927D01*
X1651611Y-51912D01*
X1651707Y-51843D01*
X1651808Y-51779D01*
X1651836Y-51749D01*
X1651869Y-51726D01*
X1651945Y-51634D01*
X1652026Y-51547D01*
X1652046Y-51512D01*
X1652071Y-51481D01*
X1652122Y-51373D01*
X1652180Y-51269D01*
X1652190Y-51229D01*
X1652207Y-51193D01*
X1652229Y-51076D01*
X1652259Y-50961D01*
X1652263Y-50901D01*
X1652267Y-50881D01*
X1652265Y-50860D01*
X1652269Y-50800D01*
X1652269Y1041400D01*
X1652254Y1041518D01*
X1652247Y1041637D01*
X1652234Y1041675D01*
X1652229Y1041716D01*
X1652186Y1041826D01*
X1652149Y1041939D01*
X1652127Y1041974D01*
X1652112Y1042011D01*
X1652043Y1042107D01*
X1651979Y1042208D01*
X1651949Y1042236D01*
X1651926Y1042269D01*
X1651834Y1042345D01*
X1651747Y1042426D01*
X1651712Y1042446D01*
X1651681Y1042471D01*
X1651573Y1042522D01*
X1651469Y1042580D01*
X1651429Y1042590D01*
X1651393Y1042607D01*
X1651276Y1042629D01*
X1651161Y1042659D01*
X1651101Y1042663D01*
X1651081Y1042667D01*
X1651060Y1042665D01*
X1651000Y1042669D01*
X-50800Y1042669D01*
X-50918Y1042654D01*
X-51037Y1042647D01*
X-51075Y1042634D01*
X-51116Y1042629D01*
X-51226Y1042586D01*
X-51339Y1042549D01*
X-51374Y1042527D01*
X-51411Y1042512D01*
X-51507Y1042443D01*
X-51608Y1042379D01*
X-51636Y1042349D01*
X-51669Y1042326D01*
X-51745Y1042234D01*
X-51826Y1042147D01*
X-51846Y1042112D01*
X-51871Y1042081D01*
X-51922Y1041973D01*
X-51980Y1041869D01*
X-51990Y1041829D01*
X-52007Y1041793D01*
X-52029Y1041676D01*
X-52059Y1041561D01*
X-52063Y1041501D01*
X-52067Y1041481D01*
X-52065Y1041460D01*
X-52069Y1041400D01*
X-52069Y-50800D01*
X-52054Y-50918D01*
X-52047Y-51037D01*
X-52034Y-51075D01*
X-52029Y-51116D01*
X-51986Y-51226D01*
X-51949Y-51339D01*
X-51927Y-51374D01*
X-51912Y-51411D01*
X-51843Y-51507D01*
X-51779Y-51608D01*
X-51749Y-51636D01*
X-51726Y-51669D01*
X-51634Y-51745D01*
X-51547Y-51826D01*
X-51512Y-51846D01*
X-51481Y-51871D01*
X-51373Y-51922D01*
X-51269Y-51980D01*
X-51229Y-51990D01*
X-51193Y-52007D01*
X-51076Y-52029D01*
X-50961Y-52059D01*
X-50901Y-52063D01*
X-50881Y-52067D01*
X-50860Y-52065D01*
X-50800Y-52069D01*
X1651000Y-52069D01*
X1651118Y-52054D01*
G37*
%LPC*%
G36*
X-1052Y-2541D02*
X-1052Y-2541D01*
X-2541Y-1052D01*
X-2541Y1001052D01*
X-1052Y1002541D01*
X1601052Y1002541D01*
X1602541Y1001052D01*
X1602541Y-1052D01*
X1601052Y-2541D01*
X-1052Y-2541D01*
G37*
%LPD*%
G36*
X1596308Y2556D02*
X1596308Y2556D01*
X1596427Y2563D01*
X1596465Y2576D01*
X1596506Y2581D01*
X1596616Y2624D01*
X1596729Y2661D01*
X1596764Y2683D01*
X1596801Y2698D01*
X1596897Y2767D01*
X1596998Y2831D01*
X1597026Y2861D01*
X1597059Y2884D01*
X1597135Y2976D01*
X1597216Y3063D01*
X1597236Y3098D01*
X1597261Y3129D01*
X1597312Y3237D01*
X1597370Y3341D01*
X1597380Y3381D01*
X1597397Y3417D01*
X1597419Y3534D01*
X1597449Y3649D01*
X1597453Y3709D01*
X1597457Y3729D01*
X1597455Y3750D01*
X1597459Y3810D01*
X1597459Y996190D01*
X1597444Y996308D01*
X1597437Y996427D01*
X1597424Y996465D01*
X1597419Y996506D01*
X1597376Y996616D01*
X1597339Y996729D01*
X1597317Y996764D01*
X1597302Y996801D01*
X1597233Y996897D01*
X1597169Y996998D01*
X1597139Y997026D01*
X1597116Y997059D01*
X1597024Y997135D01*
X1596937Y997216D01*
X1596902Y997236D01*
X1596871Y997261D01*
X1596763Y997312D01*
X1596659Y997370D01*
X1596619Y997380D01*
X1596583Y997397D01*
X1596466Y997419D01*
X1596351Y997449D01*
X1596291Y997453D01*
X1596271Y997457D01*
X1596250Y997455D01*
X1596190Y997459D01*
X3810Y997459D01*
X3692Y997444D01*
X3573Y997437D01*
X3535Y997424D01*
X3494Y997419D01*
X3384Y997376D01*
X3271Y997339D01*
X3236Y997317D01*
X3199Y997302D01*
X3103Y997233D01*
X3002Y997169D01*
X2974Y997139D01*
X2941Y997116D01*
X2865Y997024D01*
X2784Y996937D01*
X2764Y996902D01*
X2739Y996871D01*
X2688Y996763D01*
X2630Y996659D01*
X2620Y996619D01*
X2603Y996583D01*
X2581Y996466D01*
X2551Y996351D01*
X2547Y996291D01*
X2543Y996271D01*
X2545Y996250D01*
X2541Y996190D01*
X2541Y3810D01*
X2556Y3692D01*
X2563Y3573D01*
X2576Y3535D01*
X2581Y3494D01*
X2624Y3384D01*
X2661Y3271D01*
X2683Y3236D01*
X2698Y3199D01*
X2767Y3103D01*
X2831Y3002D01*
X2861Y2974D01*
X2884Y2941D01*
X2976Y2865D01*
X3063Y2784D01*
X3098Y2764D01*
X3129Y2739D01*
X3237Y2688D01*
X3341Y2630D01*
X3381Y2620D01*
X3417Y2603D01*
X3534Y2581D01*
X3649Y2551D01*
X3709Y2547D01*
X3729Y2543D01*
X3750Y2545D01*
X3810Y2541D01*
X1596190Y2541D01*
X1596308Y2556D01*
G37*
%LPC*%
G36*
X859607Y242159D02*
X859607Y242159D01*
X854447Y244297D01*
X850497Y248247D01*
X848359Y253407D01*
X848359Y258993D01*
X850497Y264153D01*
X854447Y268103D01*
X859607Y270241D01*
X865193Y270241D01*
X870353Y268103D01*
X874303Y264153D01*
X876441Y258993D01*
X876441Y253407D01*
X874303Y248247D01*
X870353Y244297D01*
X865193Y242159D01*
X859607Y242159D01*
G37*
%LPD*%
%LPC*%
G36*
X859607Y110759D02*
X859607Y110759D01*
X854447Y112897D01*
X850497Y116847D01*
X848359Y122007D01*
X848359Y127593D01*
X850497Y132753D01*
X854447Y136703D01*
X859607Y138841D01*
X865193Y138841D01*
X870353Y136703D01*
X874303Y132753D01*
X876441Y127593D01*
X876441Y122007D01*
X874303Y116847D01*
X870353Y112897D01*
X865193Y110759D01*
X859607Y110759D01*
G37*
%LPD*%
%LPC*%
G36*
X391780Y828547D02*
X391780Y828547D01*
X388232Y830017D01*
X385517Y832732D01*
X384047Y836280D01*
X384047Y840120D01*
X385517Y843668D01*
X388232Y846383D01*
X391780Y847853D01*
X395620Y847853D01*
X399168Y846383D01*
X401883Y843668D01*
X403353Y840120D01*
X403353Y836280D01*
X401883Y832732D01*
X399168Y830017D01*
X395620Y828547D01*
X391780Y828547D01*
G37*
%LPD*%
%LPC*%
G36*
X493380Y422147D02*
X493380Y422147D01*
X489832Y423617D01*
X487117Y426332D01*
X485647Y429880D01*
X485647Y433720D01*
X487117Y437268D01*
X489832Y439983D01*
X493380Y441453D01*
X497220Y441453D01*
X500768Y439983D01*
X503483Y437268D01*
X504953Y433720D01*
X504953Y429880D01*
X503483Y426332D01*
X500768Y423617D01*
X497220Y422147D01*
X493380Y422147D01*
G37*
%LPD*%
%LPC*%
G36*
X366380Y726947D02*
X366380Y726947D01*
X362832Y728417D01*
X360117Y731132D01*
X358647Y734680D01*
X358647Y738520D01*
X360117Y742068D01*
X362832Y744783D01*
X366380Y746253D01*
X370220Y746253D01*
X373768Y744783D01*
X376483Y742068D01*
X377953Y738520D01*
X377953Y734680D01*
X376483Y731132D01*
X373768Y728417D01*
X370220Y726947D01*
X366380Y726947D01*
G37*
%LPD*%
%LPC*%
G36*
X417180Y726947D02*
X417180Y726947D01*
X413632Y728417D01*
X410917Y731132D01*
X409447Y734680D01*
X409447Y738520D01*
X410917Y742068D01*
X413632Y744783D01*
X417180Y746253D01*
X421020Y746253D01*
X424568Y744783D01*
X427283Y742068D01*
X428753Y738520D01*
X428753Y734680D01*
X427283Y731132D01*
X424568Y728417D01*
X421020Y726947D01*
X417180Y726947D01*
G37*
%LPD*%
%LPC*%
G36*
X544180Y422147D02*
X544180Y422147D01*
X540632Y423617D01*
X537917Y426332D01*
X536447Y429880D01*
X536447Y433720D01*
X537917Y437268D01*
X540632Y439983D01*
X544180Y441453D01*
X548020Y441453D01*
X551568Y439983D01*
X554283Y437268D01*
X555753Y433720D01*
X555753Y429880D01*
X554283Y426332D01*
X551568Y423617D01*
X548020Y422147D01*
X544180Y422147D01*
G37*
%LPD*%
%LPC*%
G36*
X518780Y523747D02*
X518780Y523747D01*
X515232Y525217D01*
X512517Y527932D01*
X511047Y531480D01*
X511047Y535320D01*
X512517Y538868D01*
X515232Y541583D01*
X518780Y543053D01*
X522620Y543053D01*
X526168Y541583D01*
X528883Y538868D01*
X530353Y535320D01*
X530353Y531480D01*
X528883Y527932D01*
X526168Y525217D01*
X522620Y523747D01*
X518780Y523747D01*
G37*
%LPD*%
%LPC*%
G36*
X991657Y393236D02*
X991657Y393236D01*
X988436Y394570D01*
X985970Y397036D01*
X984636Y400257D01*
X984636Y403743D01*
X985970Y406964D01*
X988436Y409430D01*
X991657Y410764D01*
X995143Y410764D01*
X998364Y409430D01*
X1000830Y406964D01*
X1002164Y403743D01*
X1002164Y400257D01*
X1000830Y397036D01*
X998364Y394570D01*
X995143Y393236D01*
X991657Y393236D01*
G37*
%LPD*%
%LPC*%
G36*
X966257Y393236D02*
X966257Y393236D01*
X963036Y394570D01*
X960570Y397036D01*
X959236Y400257D01*
X959236Y403743D01*
X960570Y406964D01*
X963036Y409430D01*
X966257Y410764D01*
X969743Y410764D01*
X972964Y409430D01*
X975430Y406964D01*
X976764Y403743D01*
X976764Y400257D01*
X975430Y397036D01*
X972964Y394570D01*
X969743Y393236D01*
X966257Y393236D01*
G37*
%LPD*%
%LPC*%
G36*
X737657Y393236D02*
X737657Y393236D01*
X734436Y394570D01*
X731970Y397036D01*
X730636Y400257D01*
X730636Y403743D01*
X731970Y406964D01*
X734436Y409430D01*
X737657Y410764D01*
X741143Y410764D01*
X744364Y409430D01*
X746830Y406964D01*
X748164Y403743D01*
X748164Y400257D01*
X746830Y397036D01*
X744364Y394570D01*
X741143Y393236D01*
X737657Y393236D01*
G37*
%LPD*%
%LPC*%
G36*
X712257Y393236D02*
X712257Y393236D01*
X709036Y394570D01*
X706570Y397036D01*
X705236Y400257D01*
X705236Y403743D01*
X706570Y406964D01*
X709036Y409430D01*
X712257Y410764D01*
X715743Y410764D01*
X718964Y409430D01*
X721430Y406964D01*
X722764Y403743D01*
X722764Y400257D01*
X721430Y397036D01*
X718964Y394570D01*
X715743Y393236D01*
X712257Y393236D01*
G37*
%LPD*%
%LPC*%
G36*
X966257Y825036D02*
X966257Y825036D01*
X963036Y826370D01*
X960570Y828836D01*
X959236Y832057D01*
X959236Y835543D01*
X960570Y838764D01*
X963036Y841230D01*
X966257Y842564D01*
X969743Y842564D01*
X972964Y841230D01*
X975430Y838764D01*
X976764Y835543D01*
X976764Y832057D01*
X975430Y828836D01*
X972964Y826370D01*
X969743Y825036D01*
X966257Y825036D01*
G37*
%LPD*%
%LPC*%
G36*
X737657Y825036D02*
X737657Y825036D01*
X734436Y826370D01*
X731970Y828836D01*
X730636Y832057D01*
X730636Y835543D01*
X731970Y838764D01*
X734436Y841230D01*
X737657Y842564D01*
X741143Y842564D01*
X744364Y841230D01*
X746830Y838764D01*
X748164Y835543D01*
X748164Y832057D01*
X746830Y828836D01*
X744364Y826370D01*
X741143Y825036D01*
X737657Y825036D01*
G37*
%LPD*%
%LPC*%
G36*
X712257Y825036D02*
X712257Y825036D01*
X709036Y826370D01*
X706570Y828836D01*
X705236Y832057D01*
X705236Y835543D01*
X706570Y838764D01*
X709036Y841230D01*
X712257Y842564D01*
X715743Y842564D01*
X718964Y841230D01*
X721430Y838764D01*
X722764Y835543D01*
X722764Y832057D01*
X721430Y828836D01*
X718964Y826370D01*
X715743Y825036D01*
X712257Y825036D01*
G37*
%LPD*%
%LPC*%
G36*
X991657Y799636D02*
X991657Y799636D01*
X988436Y800970D01*
X985970Y803436D01*
X984636Y806657D01*
X984636Y810143D01*
X985970Y813364D01*
X988436Y815830D01*
X991657Y817164D01*
X995143Y817164D01*
X998364Y815830D01*
X1000830Y813364D01*
X1002164Y810143D01*
X1002164Y806657D01*
X1000830Y803436D01*
X998364Y800970D01*
X995143Y799636D01*
X991657Y799636D01*
G37*
%LPD*%
%LPC*%
G36*
X966257Y799636D02*
X966257Y799636D01*
X963036Y800970D01*
X960570Y803436D01*
X959236Y806657D01*
X959236Y810143D01*
X960570Y813364D01*
X963036Y815830D01*
X966257Y817164D01*
X969743Y817164D01*
X972964Y815830D01*
X975430Y813364D01*
X976764Y810143D01*
X976764Y806657D01*
X975430Y803436D01*
X972964Y800970D01*
X969743Y799636D01*
X966257Y799636D01*
G37*
%LPD*%
%LPC*%
G36*
X737657Y799636D02*
X737657Y799636D01*
X734436Y800970D01*
X731970Y803436D01*
X730636Y806657D01*
X730636Y810143D01*
X731970Y813364D01*
X734436Y815830D01*
X737657Y817164D01*
X741143Y817164D01*
X744364Y815830D01*
X746830Y813364D01*
X748164Y810143D01*
X748164Y806657D01*
X746830Y803436D01*
X744364Y800970D01*
X741143Y799636D01*
X737657Y799636D01*
G37*
%LPD*%
%LPC*%
G36*
X712257Y799636D02*
X712257Y799636D01*
X709036Y800970D01*
X706570Y803436D01*
X705236Y806657D01*
X705236Y810143D01*
X706570Y813364D01*
X709036Y815830D01*
X712257Y817164D01*
X715743Y817164D01*
X718964Y815830D01*
X721430Y813364D01*
X722764Y810143D01*
X722764Y806657D01*
X721430Y803436D01*
X718964Y800970D01*
X715743Y799636D01*
X712257Y799636D01*
G37*
%LPD*%
%LPC*%
G36*
X991657Y774236D02*
X991657Y774236D01*
X988436Y775570D01*
X985970Y778036D01*
X984636Y781257D01*
X984636Y784743D01*
X985970Y787964D01*
X988436Y790430D01*
X991657Y791764D01*
X995143Y791764D01*
X998364Y790430D01*
X1000830Y787964D01*
X1002164Y784743D01*
X1002164Y781257D01*
X1000830Y778036D01*
X998364Y775570D01*
X995143Y774236D01*
X991657Y774236D01*
G37*
%LPD*%
%LPC*%
G36*
X966257Y774236D02*
X966257Y774236D01*
X963036Y775570D01*
X960570Y778036D01*
X959236Y781257D01*
X959236Y784743D01*
X960570Y787964D01*
X963036Y790430D01*
X966257Y791764D01*
X969743Y791764D01*
X972964Y790430D01*
X975430Y787964D01*
X976764Y784743D01*
X976764Y781257D01*
X975430Y778036D01*
X972964Y775570D01*
X969743Y774236D01*
X966257Y774236D01*
G37*
%LPD*%
%LPC*%
G36*
X737657Y774236D02*
X737657Y774236D01*
X734436Y775570D01*
X731970Y778036D01*
X730636Y781257D01*
X730636Y784743D01*
X731970Y787964D01*
X734436Y790430D01*
X737657Y791764D01*
X741143Y791764D01*
X744364Y790430D01*
X746830Y787964D01*
X748164Y784743D01*
X748164Y781257D01*
X746830Y778036D01*
X744364Y775570D01*
X741143Y774236D01*
X737657Y774236D01*
G37*
%LPD*%
%LPC*%
G36*
X712257Y774236D02*
X712257Y774236D01*
X709036Y775570D01*
X706570Y778036D01*
X705236Y781257D01*
X705236Y784743D01*
X706570Y787964D01*
X709036Y790430D01*
X712257Y791764D01*
X715743Y791764D01*
X718964Y790430D01*
X721430Y787964D01*
X722764Y784743D01*
X722764Y781257D01*
X721430Y778036D01*
X718964Y775570D01*
X715743Y774236D01*
X712257Y774236D01*
G37*
%LPD*%
%LPC*%
G36*
X991657Y748836D02*
X991657Y748836D01*
X988436Y750170D01*
X985970Y752636D01*
X984636Y755857D01*
X984636Y759343D01*
X985970Y762564D01*
X988436Y765030D01*
X991657Y766364D01*
X995143Y766364D01*
X998364Y765030D01*
X1000830Y762564D01*
X1002164Y759343D01*
X1002164Y755857D01*
X1000830Y752636D01*
X998364Y750170D01*
X995143Y748836D01*
X991657Y748836D01*
G37*
%LPD*%
%LPC*%
G36*
X966257Y748836D02*
X966257Y748836D01*
X963036Y750170D01*
X960570Y752636D01*
X959236Y755857D01*
X959236Y759343D01*
X960570Y762564D01*
X963036Y765030D01*
X966257Y766364D01*
X969743Y766364D01*
X972964Y765030D01*
X975430Y762564D01*
X976764Y759343D01*
X976764Y755857D01*
X975430Y752636D01*
X972964Y750170D01*
X969743Y748836D01*
X966257Y748836D01*
G37*
%LPD*%
%LPC*%
G36*
X737657Y748836D02*
X737657Y748836D01*
X734436Y750170D01*
X731970Y752636D01*
X730636Y755857D01*
X730636Y759343D01*
X731970Y762564D01*
X734436Y765030D01*
X737657Y766364D01*
X741143Y766364D01*
X744364Y765030D01*
X746830Y762564D01*
X748164Y759343D01*
X748164Y755857D01*
X746830Y752636D01*
X744364Y750170D01*
X741143Y748836D01*
X737657Y748836D01*
G37*
%LPD*%
%LPC*%
G36*
X712257Y748836D02*
X712257Y748836D01*
X709036Y750170D01*
X706570Y752636D01*
X705236Y755857D01*
X705236Y759343D01*
X706570Y762564D01*
X709036Y765030D01*
X712257Y766364D01*
X715743Y766364D01*
X718964Y765030D01*
X721430Y762564D01*
X722764Y759343D01*
X722764Y755857D01*
X721430Y752636D01*
X718964Y750170D01*
X715743Y748836D01*
X712257Y748836D01*
G37*
%LPD*%
%LPC*%
G36*
X991657Y723436D02*
X991657Y723436D01*
X988436Y724770D01*
X985970Y727236D01*
X984636Y730457D01*
X984636Y733943D01*
X985970Y737164D01*
X988436Y739630D01*
X991657Y740964D01*
X995143Y740964D01*
X998364Y739630D01*
X1000830Y737164D01*
X1002164Y733943D01*
X1002164Y730457D01*
X1000830Y727236D01*
X998364Y724770D01*
X995143Y723436D01*
X991657Y723436D01*
G37*
%LPD*%
%LPC*%
G36*
X966257Y723436D02*
X966257Y723436D01*
X963036Y724770D01*
X960570Y727236D01*
X959236Y730457D01*
X959236Y733943D01*
X960570Y737164D01*
X963036Y739630D01*
X966257Y740964D01*
X969743Y740964D01*
X972964Y739630D01*
X975430Y737164D01*
X976764Y733943D01*
X976764Y730457D01*
X975430Y727236D01*
X972964Y724770D01*
X969743Y723436D01*
X966257Y723436D01*
G37*
%LPD*%
%LPC*%
G36*
X737657Y723436D02*
X737657Y723436D01*
X734436Y724770D01*
X731970Y727236D01*
X730636Y730457D01*
X730636Y733943D01*
X731970Y737164D01*
X734436Y739630D01*
X737657Y740964D01*
X741143Y740964D01*
X744364Y739630D01*
X746830Y737164D01*
X748164Y733943D01*
X748164Y730457D01*
X746830Y727236D01*
X744364Y724770D01*
X741143Y723436D01*
X737657Y723436D01*
G37*
%LPD*%
%LPC*%
G36*
X712257Y723436D02*
X712257Y723436D01*
X709036Y724770D01*
X706570Y727236D01*
X705236Y730457D01*
X705236Y733943D01*
X706570Y737164D01*
X709036Y739630D01*
X712257Y740964D01*
X715743Y740964D01*
X718964Y739630D01*
X721430Y737164D01*
X722764Y733943D01*
X722764Y730457D01*
X721430Y727236D01*
X718964Y724770D01*
X715743Y723436D01*
X712257Y723436D01*
G37*
%LPD*%
%LPC*%
G36*
X991657Y698036D02*
X991657Y698036D01*
X988436Y699370D01*
X985970Y701836D01*
X984636Y705057D01*
X984636Y708543D01*
X985970Y711764D01*
X988436Y714230D01*
X991657Y715564D01*
X995143Y715564D01*
X998364Y714230D01*
X1000830Y711764D01*
X1002164Y708543D01*
X1002164Y705057D01*
X1000830Y701836D01*
X998364Y699370D01*
X995143Y698036D01*
X991657Y698036D01*
G37*
%LPD*%
%LPC*%
G36*
X966257Y698036D02*
X966257Y698036D01*
X963036Y699370D01*
X960570Y701836D01*
X959236Y705057D01*
X959236Y708543D01*
X960570Y711764D01*
X963036Y714230D01*
X966257Y715564D01*
X969743Y715564D01*
X972964Y714230D01*
X975430Y711764D01*
X976764Y708543D01*
X976764Y705057D01*
X975430Y701836D01*
X972964Y699370D01*
X969743Y698036D01*
X966257Y698036D01*
G37*
%LPD*%
%LPC*%
G36*
X737657Y698036D02*
X737657Y698036D01*
X734436Y699370D01*
X731970Y701836D01*
X730636Y705057D01*
X730636Y708543D01*
X731970Y711764D01*
X734436Y714230D01*
X737657Y715564D01*
X741143Y715564D01*
X744364Y714230D01*
X746830Y711764D01*
X748164Y708543D01*
X748164Y705057D01*
X746830Y701836D01*
X744364Y699370D01*
X741143Y698036D01*
X737657Y698036D01*
G37*
%LPD*%
%LPC*%
G36*
X712257Y698036D02*
X712257Y698036D01*
X709036Y699370D01*
X706570Y701836D01*
X705236Y705057D01*
X705236Y708543D01*
X706570Y711764D01*
X709036Y714230D01*
X712257Y715564D01*
X715743Y715564D01*
X718964Y714230D01*
X721430Y711764D01*
X722764Y708543D01*
X722764Y705057D01*
X721430Y701836D01*
X718964Y699370D01*
X715743Y698036D01*
X712257Y698036D01*
G37*
%LPD*%
%LPC*%
G36*
X991657Y672636D02*
X991657Y672636D01*
X988436Y673970D01*
X985970Y676436D01*
X984636Y679657D01*
X984636Y683143D01*
X985970Y686364D01*
X988436Y688830D01*
X991657Y690164D01*
X995143Y690164D01*
X998364Y688830D01*
X1000830Y686364D01*
X1002164Y683143D01*
X1002164Y679657D01*
X1000830Y676436D01*
X998364Y673970D01*
X995143Y672636D01*
X991657Y672636D01*
G37*
%LPD*%
%LPC*%
G36*
X966257Y672636D02*
X966257Y672636D01*
X963036Y673970D01*
X960570Y676436D01*
X959236Y679657D01*
X959236Y683143D01*
X960570Y686364D01*
X963036Y688830D01*
X966257Y690164D01*
X969743Y690164D01*
X972964Y688830D01*
X975430Y686364D01*
X976764Y683143D01*
X976764Y679657D01*
X975430Y676436D01*
X972964Y673970D01*
X969743Y672636D01*
X966257Y672636D01*
G37*
%LPD*%
%LPC*%
G36*
X737657Y672636D02*
X737657Y672636D01*
X734436Y673970D01*
X731970Y676436D01*
X730636Y679657D01*
X730636Y683143D01*
X731970Y686364D01*
X734436Y688830D01*
X737657Y690164D01*
X741143Y690164D01*
X744364Y688830D01*
X746830Y686364D01*
X748164Y683143D01*
X748164Y679657D01*
X746830Y676436D01*
X744364Y673970D01*
X741143Y672636D01*
X737657Y672636D01*
G37*
%LPD*%
%LPC*%
G36*
X712257Y672636D02*
X712257Y672636D01*
X709036Y673970D01*
X706570Y676436D01*
X705236Y679657D01*
X705236Y683143D01*
X706570Y686364D01*
X709036Y688830D01*
X712257Y690164D01*
X715743Y690164D01*
X718964Y688830D01*
X721430Y686364D01*
X722764Y683143D01*
X722764Y679657D01*
X721430Y676436D01*
X718964Y673970D01*
X715743Y672636D01*
X712257Y672636D01*
G37*
%LPD*%
%LPC*%
G36*
X991657Y647236D02*
X991657Y647236D01*
X988436Y648570D01*
X985970Y651036D01*
X984636Y654257D01*
X984636Y657743D01*
X985970Y660964D01*
X988436Y663430D01*
X991657Y664764D01*
X995143Y664764D01*
X998364Y663430D01*
X1000830Y660964D01*
X1002164Y657743D01*
X1002164Y654257D01*
X1000830Y651036D01*
X998364Y648570D01*
X995143Y647236D01*
X991657Y647236D01*
G37*
%LPD*%
%LPC*%
G36*
X966257Y647236D02*
X966257Y647236D01*
X963036Y648570D01*
X960570Y651036D01*
X959236Y654257D01*
X959236Y657743D01*
X960570Y660964D01*
X963036Y663430D01*
X966257Y664764D01*
X969743Y664764D01*
X972964Y663430D01*
X975430Y660964D01*
X976764Y657743D01*
X976764Y654257D01*
X975430Y651036D01*
X972964Y648570D01*
X969743Y647236D01*
X966257Y647236D01*
G37*
%LPD*%
%LPC*%
G36*
X737657Y647236D02*
X737657Y647236D01*
X734436Y648570D01*
X731970Y651036D01*
X730636Y654257D01*
X730636Y657743D01*
X731970Y660964D01*
X734436Y663430D01*
X737657Y664764D01*
X741143Y664764D01*
X744364Y663430D01*
X746830Y660964D01*
X748164Y657743D01*
X748164Y654257D01*
X746830Y651036D01*
X744364Y648570D01*
X741143Y647236D01*
X737657Y647236D01*
G37*
%LPD*%
%LPC*%
G36*
X712257Y647236D02*
X712257Y647236D01*
X709036Y648570D01*
X706570Y651036D01*
X705236Y654257D01*
X705236Y657743D01*
X706570Y660964D01*
X709036Y663430D01*
X712257Y664764D01*
X715743Y664764D01*
X718964Y663430D01*
X721430Y660964D01*
X722764Y657743D01*
X722764Y654257D01*
X721430Y651036D01*
X718964Y648570D01*
X715743Y647236D01*
X712257Y647236D01*
G37*
%LPD*%
%LPC*%
G36*
X991657Y621836D02*
X991657Y621836D01*
X988436Y623170D01*
X985970Y625636D01*
X984636Y628857D01*
X984636Y632343D01*
X985970Y635564D01*
X988436Y638030D01*
X991657Y639364D01*
X995143Y639364D01*
X998364Y638030D01*
X1000830Y635564D01*
X1002164Y632343D01*
X1002164Y628857D01*
X1000830Y625636D01*
X998364Y623170D01*
X995143Y621836D01*
X991657Y621836D01*
G37*
%LPD*%
%LPC*%
G36*
X966257Y621836D02*
X966257Y621836D01*
X963036Y623170D01*
X960570Y625636D01*
X959236Y628857D01*
X959236Y632343D01*
X960570Y635564D01*
X963036Y638030D01*
X966257Y639364D01*
X969743Y639364D01*
X972964Y638030D01*
X975430Y635564D01*
X976764Y632343D01*
X976764Y628857D01*
X975430Y625636D01*
X972964Y623170D01*
X969743Y621836D01*
X966257Y621836D01*
G37*
%LPD*%
%LPC*%
G36*
X991657Y825036D02*
X991657Y825036D01*
X988436Y826370D01*
X985970Y828836D01*
X984636Y832057D01*
X984636Y835543D01*
X985970Y838764D01*
X988436Y841230D01*
X991657Y842564D01*
X995143Y842564D01*
X998364Y841230D01*
X1000830Y838764D01*
X1002164Y835543D01*
X1002164Y832057D01*
X1000830Y828836D01*
X998364Y826370D01*
X995143Y825036D01*
X991657Y825036D01*
G37*
%LPD*%
%LPC*%
G36*
X712257Y621836D02*
X712257Y621836D01*
X709036Y623170D01*
X706570Y625636D01*
X705236Y628857D01*
X705236Y632343D01*
X706570Y635564D01*
X709036Y638030D01*
X712257Y639364D01*
X715743Y639364D01*
X718964Y638030D01*
X721430Y635564D01*
X722764Y632343D01*
X722764Y628857D01*
X721430Y625636D01*
X718964Y623170D01*
X715743Y621836D01*
X712257Y621836D01*
G37*
%LPD*%
%LPC*%
G36*
X991657Y596436D02*
X991657Y596436D01*
X988436Y597770D01*
X985970Y600236D01*
X984636Y603457D01*
X984636Y606943D01*
X985970Y610164D01*
X988436Y612630D01*
X991657Y613964D01*
X995143Y613964D01*
X998364Y612630D01*
X1000830Y610164D01*
X1002164Y606943D01*
X1002164Y603457D01*
X1000830Y600236D01*
X998364Y597770D01*
X995143Y596436D01*
X991657Y596436D01*
G37*
%LPD*%
%LPC*%
G36*
X966257Y596436D02*
X966257Y596436D01*
X963036Y597770D01*
X960570Y600236D01*
X959236Y603457D01*
X959236Y606943D01*
X960570Y610164D01*
X963036Y612630D01*
X966257Y613964D01*
X969743Y613964D01*
X972964Y612630D01*
X975430Y610164D01*
X976764Y606943D01*
X976764Y603457D01*
X975430Y600236D01*
X972964Y597770D01*
X969743Y596436D01*
X966257Y596436D01*
G37*
%LPD*%
%LPC*%
G36*
X737657Y596436D02*
X737657Y596436D01*
X734436Y597770D01*
X731970Y600236D01*
X730636Y603457D01*
X730636Y606943D01*
X731970Y610164D01*
X734436Y612630D01*
X737657Y613964D01*
X741143Y613964D01*
X744364Y612630D01*
X746830Y610164D01*
X748164Y606943D01*
X748164Y603457D01*
X746830Y600236D01*
X744364Y597770D01*
X741143Y596436D01*
X737657Y596436D01*
G37*
%LPD*%
%LPC*%
G36*
X712257Y596436D02*
X712257Y596436D01*
X709036Y597770D01*
X706570Y600236D01*
X705236Y603457D01*
X705236Y606943D01*
X706570Y610164D01*
X709036Y612630D01*
X712257Y613964D01*
X715743Y613964D01*
X718964Y612630D01*
X721430Y610164D01*
X722764Y606943D01*
X722764Y603457D01*
X721430Y600236D01*
X718964Y597770D01*
X715743Y596436D01*
X712257Y596436D01*
G37*
%LPD*%
%LPC*%
G36*
X991657Y571036D02*
X991657Y571036D01*
X988436Y572370D01*
X985970Y574836D01*
X984636Y578057D01*
X984636Y581543D01*
X985970Y584764D01*
X988436Y587230D01*
X991657Y588564D01*
X995143Y588564D01*
X998364Y587230D01*
X1000830Y584764D01*
X1002164Y581543D01*
X1002164Y578057D01*
X1000830Y574836D01*
X998364Y572370D01*
X995143Y571036D01*
X991657Y571036D01*
G37*
%LPD*%
%LPC*%
G36*
X966257Y571036D02*
X966257Y571036D01*
X963036Y572370D01*
X960570Y574836D01*
X959236Y578057D01*
X959236Y581543D01*
X960570Y584764D01*
X963036Y587230D01*
X966257Y588564D01*
X969743Y588564D01*
X972964Y587230D01*
X975430Y584764D01*
X976764Y581543D01*
X976764Y578057D01*
X975430Y574836D01*
X972964Y572370D01*
X969743Y571036D01*
X966257Y571036D01*
G37*
%LPD*%
%LPC*%
G36*
X737657Y571036D02*
X737657Y571036D01*
X734436Y572370D01*
X731970Y574836D01*
X730636Y578057D01*
X730636Y581543D01*
X731970Y584764D01*
X734436Y587230D01*
X737657Y588564D01*
X741143Y588564D01*
X744364Y587230D01*
X746830Y584764D01*
X748164Y581543D01*
X748164Y578057D01*
X746830Y574836D01*
X744364Y572370D01*
X741143Y571036D01*
X737657Y571036D01*
G37*
%LPD*%
%LPC*%
G36*
X712257Y571036D02*
X712257Y571036D01*
X709036Y572370D01*
X706570Y574836D01*
X705236Y578057D01*
X705236Y581543D01*
X706570Y584764D01*
X709036Y587230D01*
X712257Y588564D01*
X715743Y588564D01*
X718964Y587230D01*
X721430Y584764D01*
X722764Y581543D01*
X722764Y578057D01*
X721430Y574836D01*
X718964Y572370D01*
X715743Y571036D01*
X712257Y571036D01*
G37*
%LPD*%
%LPC*%
G36*
X966257Y545636D02*
X966257Y545636D01*
X963036Y546970D01*
X960570Y549436D01*
X959236Y552657D01*
X959236Y556143D01*
X960570Y559364D01*
X963036Y561830D01*
X966257Y563164D01*
X969743Y563164D01*
X972964Y561830D01*
X975430Y559364D01*
X976764Y556143D01*
X976764Y552657D01*
X975430Y549436D01*
X972964Y546970D01*
X969743Y545636D01*
X966257Y545636D01*
G37*
%LPD*%
%LPC*%
G36*
X737657Y545636D02*
X737657Y545636D01*
X734436Y546970D01*
X731970Y549436D01*
X730636Y552657D01*
X730636Y556143D01*
X731970Y559364D01*
X734436Y561830D01*
X737657Y563164D01*
X741143Y563164D01*
X744364Y561830D01*
X746830Y559364D01*
X748164Y556143D01*
X748164Y552657D01*
X746830Y549436D01*
X744364Y546970D01*
X741143Y545636D01*
X737657Y545636D01*
G37*
%LPD*%
%LPC*%
G36*
X991657Y545636D02*
X991657Y545636D01*
X988436Y546970D01*
X985970Y549436D01*
X984636Y552657D01*
X984636Y556143D01*
X985970Y559364D01*
X988436Y561830D01*
X991657Y563164D01*
X995143Y563164D01*
X998364Y561830D01*
X1000830Y559364D01*
X1002164Y556143D01*
X1002164Y552657D01*
X1000830Y549436D01*
X998364Y546970D01*
X995143Y545636D01*
X991657Y545636D01*
G37*
%LPD*%
%LPC*%
G36*
X712257Y545636D02*
X712257Y545636D01*
X709036Y546970D01*
X706570Y549436D01*
X705236Y552657D01*
X705236Y556143D01*
X706570Y559364D01*
X709036Y561830D01*
X712257Y563164D01*
X715743Y563164D01*
X718964Y561830D01*
X721430Y559364D01*
X722764Y556143D01*
X722764Y552657D01*
X721430Y549436D01*
X718964Y546970D01*
X715743Y545636D01*
X712257Y545636D01*
G37*
%LPD*%
%LPC*%
G36*
X991657Y520236D02*
X991657Y520236D01*
X988436Y521570D01*
X985970Y524036D01*
X984636Y527257D01*
X984636Y530743D01*
X985970Y533964D01*
X988436Y536430D01*
X991657Y537764D01*
X995143Y537764D01*
X998364Y536430D01*
X1000830Y533964D01*
X1002164Y530743D01*
X1002164Y527257D01*
X1000830Y524036D01*
X998364Y521570D01*
X995143Y520236D01*
X991657Y520236D01*
G37*
%LPD*%
%LPC*%
G36*
X966257Y520236D02*
X966257Y520236D01*
X963036Y521570D01*
X960570Y524036D01*
X959236Y527257D01*
X959236Y530743D01*
X960570Y533964D01*
X963036Y536430D01*
X966257Y537764D01*
X969743Y537764D01*
X972964Y536430D01*
X975430Y533964D01*
X976764Y530743D01*
X976764Y527257D01*
X975430Y524036D01*
X972964Y521570D01*
X969743Y520236D01*
X966257Y520236D01*
G37*
%LPD*%
%LPC*%
G36*
X737657Y520236D02*
X737657Y520236D01*
X734436Y521570D01*
X731970Y524036D01*
X730636Y527257D01*
X730636Y530743D01*
X731970Y533964D01*
X734436Y536430D01*
X737657Y537764D01*
X741143Y537764D01*
X744364Y536430D01*
X746830Y533964D01*
X748164Y530743D01*
X748164Y527257D01*
X746830Y524036D01*
X744364Y521570D01*
X741143Y520236D01*
X737657Y520236D01*
G37*
%LPD*%
%LPC*%
G36*
X712257Y520236D02*
X712257Y520236D01*
X709036Y521570D01*
X706570Y524036D01*
X705236Y527257D01*
X705236Y530743D01*
X706570Y533964D01*
X709036Y536430D01*
X712257Y537764D01*
X715743Y537764D01*
X718964Y536430D01*
X721430Y533964D01*
X722764Y530743D01*
X722764Y527257D01*
X721430Y524036D01*
X718964Y521570D01*
X715743Y520236D01*
X712257Y520236D01*
G37*
%LPD*%
%LPC*%
G36*
X991657Y494836D02*
X991657Y494836D01*
X988436Y496170D01*
X985970Y498636D01*
X984636Y501857D01*
X984636Y505343D01*
X985970Y508564D01*
X988436Y511030D01*
X991657Y512364D01*
X995143Y512364D01*
X998364Y511030D01*
X1000830Y508564D01*
X1002164Y505343D01*
X1002164Y501857D01*
X1000830Y498636D01*
X998364Y496170D01*
X995143Y494836D01*
X991657Y494836D01*
G37*
%LPD*%
%LPC*%
G36*
X966257Y494836D02*
X966257Y494836D01*
X963036Y496170D01*
X960570Y498636D01*
X959236Y501857D01*
X959236Y505343D01*
X960570Y508564D01*
X963036Y511030D01*
X966257Y512364D01*
X969743Y512364D01*
X972964Y511030D01*
X975430Y508564D01*
X976764Y505343D01*
X976764Y501857D01*
X975430Y498636D01*
X972964Y496170D01*
X969743Y494836D01*
X966257Y494836D01*
G37*
%LPD*%
%LPC*%
G36*
X737657Y494836D02*
X737657Y494836D01*
X734436Y496170D01*
X731970Y498636D01*
X730636Y501857D01*
X730636Y505343D01*
X731970Y508564D01*
X734436Y511030D01*
X737657Y512364D01*
X741143Y512364D01*
X744364Y511030D01*
X746830Y508564D01*
X748164Y505343D01*
X748164Y501857D01*
X746830Y498636D01*
X744364Y496170D01*
X741143Y494836D01*
X737657Y494836D01*
G37*
%LPD*%
%LPC*%
G36*
X712257Y494836D02*
X712257Y494836D01*
X709036Y496170D01*
X706570Y498636D01*
X705236Y501857D01*
X705236Y505343D01*
X706570Y508564D01*
X709036Y511030D01*
X712257Y512364D01*
X715743Y512364D01*
X718964Y511030D01*
X721430Y508564D01*
X722764Y505343D01*
X722764Y501857D01*
X721430Y498636D01*
X718964Y496170D01*
X715743Y494836D01*
X712257Y494836D01*
G37*
%LPD*%
%LPC*%
G36*
X991657Y469436D02*
X991657Y469436D01*
X988436Y470770D01*
X985970Y473236D01*
X984636Y476457D01*
X984636Y479943D01*
X985970Y483164D01*
X988436Y485630D01*
X991657Y486964D01*
X995143Y486964D01*
X998364Y485630D01*
X1000830Y483164D01*
X1002164Y479943D01*
X1002164Y476457D01*
X1000830Y473236D01*
X998364Y470770D01*
X995143Y469436D01*
X991657Y469436D01*
G37*
%LPD*%
%LPC*%
G36*
X966257Y469436D02*
X966257Y469436D01*
X963036Y470770D01*
X960570Y473236D01*
X959236Y476457D01*
X959236Y479943D01*
X960570Y483164D01*
X963036Y485630D01*
X966257Y486964D01*
X969743Y486964D01*
X972964Y485630D01*
X975430Y483164D01*
X976764Y479943D01*
X976764Y476457D01*
X975430Y473236D01*
X972964Y470770D01*
X969743Y469436D01*
X966257Y469436D01*
G37*
%LPD*%
%LPC*%
G36*
X737657Y469436D02*
X737657Y469436D01*
X734436Y470770D01*
X731970Y473236D01*
X730636Y476457D01*
X730636Y479943D01*
X731970Y483164D01*
X734436Y485630D01*
X737657Y486964D01*
X741143Y486964D01*
X744364Y485630D01*
X746830Y483164D01*
X748164Y479943D01*
X748164Y476457D01*
X746830Y473236D01*
X744364Y470770D01*
X741143Y469436D01*
X737657Y469436D01*
G37*
%LPD*%
%LPC*%
G36*
X712257Y469436D02*
X712257Y469436D01*
X709036Y470770D01*
X706570Y473236D01*
X705236Y476457D01*
X705236Y479943D01*
X706570Y483164D01*
X709036Y485630D01*
X712257Y486964D01*
X715743Y486964D01*
X718964Y485630D01*
X721430Y483164D01*
X722764Y479943D01*
X722764Y476457D01*
X721430Y473236D01*
X718964Y470770D01*
X715743Y469436D01*
X712257Y469436D01*
G37*
%LPD*%
%LPC*%
G36*
X991657Y444036D02*
X991657Y444036D01*
X988436Y445370D01*
X985970Y447836D01*
X984636Y451057D01*
X984636Y454543D01*
X985970Y457764D01*
X988436Y460230D01*
X991657Y461564D01*
X995143Y461564D01*
X998364Y460230D01*
X1000830Y457764D01*
X1002164Y454543D01*
X1002164Y451057D01*
X1000830Y447836D01*
X998364Y445370D01*
X995143Y444036D01*
X991657Y444036D01*
G37*
%LPD*%
%LPC*%
G36*
X966257Y444036D02*
X966257Y444036D01*
X963036Y445370D01*
X960570Y447836D01*
X959236Y451057D01*
X959236Y454543D01*
X960570Y457764D01*
X963036Y460230D01*
X966257Y461564D01*
X969743Y461564D01*
X972964Y460230D01*
X975430Y457764D01*
X976764Y454543D01*
X976764Y451057D01*
X975430Y447836D01*
X972964Y445370D01*
X969743Y444036D01*
X966257Y444036D01*
G37*
%LPD*%
%LPC*%
G36*
X737657Y444036D02*
X737657Y444036D01*
X734436Y445370D01*
X731970Y447836D01*
X730636Y451057D01*
X730636Y454543D01*
X731970Y457764D01*
X734436Y460230D01*
X737657Y461564D01*
X741143Y461564D01*
X744364Y460230D01*
X746830Y457764D01*
X748164Y454543D01*
X748164Y451057D01*
X746830Y447836D01*
X744364Y445370D01*
X741143Y444036D01*
X737657Y444036D01*
G37*
%LPD*%
%LPC*%
G36*
X712257Y444036D02*
X712257Y444036D01*
X709036Y445370D01*
X706570Y447836D01*
X705236Y451057D01*
X705236Y454543D01*
X706570Y457764D01*
X709036Y460230D01*
X712257Y461564D01*
X715743Y461564D01*
X718964Y460230D01*
X721430Y457764D01*
X722764Y454543D01*
X722764Y451057D01*
X721430Y447836D01*
X718964Y445370D01*
X715743Y444036D01*
X712257Y444036D01*
G37*
%LPD*%
%LPC*%
G36*
X737657Y621836D02*
X737657Y621836D01*
X734436Y623170D01*
X731970Y625636D01*
X730636Y628857D01*
X730636Y632343D01*
X731970Y635564D01*
X734436Y638030D01*
X737657Y639364D01*
X741143Y639364D01*
X744364Y638030D01*
X746830Y635564D01*
X748164Y632343D01*
X748164Y628857D01*
X746830Y625636D01*
X744364Y623170D01*
X741143Y621836D01*
X737657Y621836D01*
G37*
%LPD*%
%LPC*%
G36*
X991657Y418636D02*
X991657Y418636D01*
X988436Y419970D01*
X985970Y422436D01*
X984636Y425657D01*
X984636Y429143D01*
X985970Y432364D01*
X988436Y434830D01*
X991657Y436164D01*
X995143Y436164D01*
X998364Y434830D01*
X1000830Y432364D01*
X1002164Y429143D01*
X1002164Y425657D01*
X1000830Y422436D01*
X998364Y419970D01*
X995143Y418636D01*
X991657Y418636D01*
G37*
%LPD*%
%LPC*%
G36*
X966257Y418636D02*
X966257Y418636D01*
X963036Y419970D01*
X960570Y422436D01*
X959236Y425657D01*
X959236Y429143D01*
X960570Y432364D01*
X963036Y434830D01*
X966257Y436164D01*
X969743Y436164D01*
X972964Y434830D01*
X975430Y432364D01*
X976764Y429143D01*
X976764Y425657D01*
X975430Y422436D01*
X972964Y419970D01*
X969743Y418636D01*
X966257Y418636D01*
G37*
%LPD*%
%LPC*%
G36*
X737657Y418636D02*
X737657Y418636D01*
X734436Y419970D01*
X731970Y422436D01*
X730636Y425657D01*
X730636Y429143D01*
X731970Y432364D01*
X734436Y434830D01*
X737657Y436164D01*
X741143Y436164D01*
X744364Y434830D01*
X746830Y432364D01*
X748164Y429143D01*
X748164Y425657D01*
X746830Y422436D01*
X744364Y419970D01*
X741143Y418636D01*
X737657Y418636D01*
G37*
%LPD*%
%LPC*%
G36*
X712257Y418636D02*
X712257Y418636D01*
X709036Y419970D01*
X706570Y422436D01*
X705236Y425657D01*
X705236Y429143D01*
X706570Y432364D01*
X709036Y434830D01*
X712257Y436164D01*
X715743Y436164D01*
X718964Y434830D01*
X721430Y432364D01*
X722764Y429143D01*
X722764Y425657D01*
X721430Y422436D01*
X718964Y419970D01*
X715743Y418636D01*
X712257Y418636D01*
G37*
%LPD*%
%LPC*%
G36*
X379363Y436270D02*
X379363Y436270D01*
X376338Y437523D01*
X374023Y439838D01*
X372770Y442863D01*
X372770Y446137D01*
X374023Y449162D01*
X376338Y451477D01*
X379363Y452730D01*
X382637Y452730D01*
X385662Y451477D01*
X387977Y449162D01*
X389230Y446137D01*
X389230Y442863D01*
X387977Y439838D01*
X385662Y437523D01*
X382637Y436270D01*
X379363Y436270D01*
G37*
%LPD*%
%LPC*%
G36*
X353963Y436270D02*
X353963Y436270D01*
X350938Y437523D01*
X348623Y439838D01*
X347370Y442863D01*
X347370Y446137D01*
X348623Y449162D01*
X350938Y451477D01*
X353963Y452730D01*
X357237Y452730D01*
X360262Y451477D01*
X362577Y449162D01*
X363830Y446137D01*
X363830Y442863D01*
X362577Y439838D01*
X360262Y437523D01*
X357237Y436270D01*
X353963Y436270D01*
G37*
%LPD*%
%LPC*%
G36*
X163463Y893470D02*
X163463Y893470D01*
X160438Y894723D01*
X158123Y897038D01*
X156870Y900063D01*
X156870Y903337D01*
X158123Y906362D01*
X160438Y908677D01*
X163463Y909930D01*
X166737Y909930D01*
X169762Y908677D01*
X172077Y906362D01*
X173330Y903337D01*
X173330Y900063D01*
X172077Y897038D01*
X169762Y894723D01*
X166737Y893470D01*
X163463Y893470D01*
G37*
%LPD*%
%LPC*%
G36*
X138063Y893470D02*
X138063Y893470D01*
X135038Y894723D01*
X132723Y897038D01*
X131470Y900063D01*
X131470Y903337D01*
X132723Y906362D01*
X135038Y908677D01*
X138063Y909930D01*
X141337Y909930D01*
X144362Y908677D01*
X146677Y906362D01*
X147930Y903337D01*
X147930Y900063D01*
X146677Y897038D01*
X144362Y894723D01*
X141337Y893470D01*
X138063Y893470D01*
G37*
%LPD*%
%LPC*%
G36*
X188863Y474370D02*
X188863Y474370D01*
X185838Y475623D01*
X183523Y477938D01*
X182270Y480963D01*
X182270Y484237D01*
X183523Y487262D01*
X185838Y489577D01*
X188863Y490830D01*
X192137Y490830D01*
X195162Y489577D01*
X197477Y487262D01*
X198730Y484237D01*
X198730Y480963D01*
X197477Y477938D01*
X195162Y475623D01*
X192137Y474370D01*
X188863Y474370D01*
G37*
%LPD*%
%LPC*%
G36*
X163463Y474370D02*
X163463Y474370D01*
X160438Y475623D01*
X158123Y477938D01*
X156870Y480963D01*
X156870Y484237D01*
X158123Y487262D01*
X160438Y489577D01*
X163463Y490830D01*
X166737Y490830D01*
X169762Y489577D01*
X172077Y487262D01*
X173330Y484237D01*
X173330Y480963D01*
X172077Y477938D01*
X169762Y475623D01*
X166737Y474370D01*
X163463Y474370D01*
G37*
%LPD*%
%LPC*%
G36*
X601781Y925259D02*
X601781Y925259D01*
X598789Y926499D01*
X596499Y928789D01*
X595259Y931781D01*
X595259Y935019D01*
X596499Y938011D01*
X598789Y940301D01*
X601781Y941541D01*
X605019Y941541D01*
X608011Y940301D01*
X610301Y938011D01*
X611541Y935019D01*
X611541Y931781D01*
X610301Y928789D01*
X608011Y926499D01*
X605019Y925259D01*
X601781Y925259D01*
G37*
%LPD*%
%LPC*%
G36*
X449381Y925259D02*
X449381Y925259D01*
X446389Y926499D01*
X444099Y928789D01*
X442859Y931781D01*
X442859Y935019D01*
X444099Y938011D01*
X446389Y940301D01*
X449381Y941541D01*
X452619Y941541D01*
X455611Y940301D01*
X457901Y938011D01*
X459141Y935019D01*
X459141Y931781D01*
X457901Y928789D01*
X455611Y926499D01*
X452619Y925259D01*
X449381Y925259D01*
G37*
%LPD*%
%LPC*%
G36*
X563531Y912609D02*
X563531Y912609D01*
X560539Y913849D01*
X558249Y916139D01*
X557009Y919131D01*
X557009Y922369D01*
X558249Y925361D01*
X560539Y927651D01*
X563531Y928891D01*
X566769Y928891D01*
X569761Y927651D01*
X572051Y925361D01*
X573291Y922369D01*
X573291Y919131D01*
X572051Y916139D01*
X569761Y913849D01*
X566769Y912609D01*
X563531Y912609D01*
G37*
%LPD*%
%LPC*%
G36*
X411131Y912609D02*
X411131Y912609D01*
X408139Y913849D01*
X405849Y916139D01*
X404609Y919131D01*
X404609Y922369D01*
X405849Y925361D01*
X408139Y927651D01*
X411131Y928891D01*
X414369Y928891D01*
X417361Y927651D01*
X419651Y925361D01*
X420891Y922369D01*
X420891Y919131D01*
X419651Y916139D01*
X417361Y913849D01*
X414369Y912609D01*
X411131Y912609D01*
G37*
%LPD*%
%LPC*%
G36*
X474631Y899909D02*
X474631Y899909D01*
X471639Y901149D01*
X469349Y903439D01*
X468109Y906431D01*
X468109Y909669D01*
X469349Y912661D01*
X471639Y914951D01*
X474631Y916191D01*
X477869Y916191D01*
X480861Y914951D01*
X483151Y912661D01*
X484391Y909669D01*
X484391Y906431D01*
X483151Y903439D01*
X480861Y901149D01*
X477869Y899909D01*
X474631Y899909D01*
G37*
%LPD*%
%LPC*%
G36*
X627031Y899909D02*
X627031Y899909D01*
X624039Y901149D01*
X621749Y903439D01*
X620509Y906431D01*
X620509Y909669D01*
X621749Y912661D01*
X624039Y914951D01*
X627031Y916191D01*
X630269Y916191D01*
X633261Y914951D01*
X635551Y912661D01*
X636791Y909669D01*
X636791Y906431D01*
X635551Y903439D01*
X633261Y901149D01*
X630269Y899909D01*
X627031Y899909D01*
G37*
%LPD*%
%LPC*%
G36*
X1514300Y364059D02*
X1514300Y364059D01*
X1511529Y365207D01*
X1509407Y367329D01*
X1508259Y370100D01*
X1508259Y373100D01*
X1509407Y375871D01*
X1511529Y377993D01*
X1514300Y379141D01*
X1517300Y379141D01*
X1520071Y377993D01*
X1522193Y375871D01*
X1523341Y373100D01*
X1523341Y370100D01*
X1522193Y367329D01*
X1520071Y365207D01*
X1517300Y364059D01*
X1514300Y364059D01*
G37*
%LPD*%
%LPC*%
G36*
X1124300Y364059D02*
X1124300Y364059D01*
X1121529Y365207D01*
X1119407Y367329D01*
X1118259Y370100D01*
X1118259Y373100D01*
X1119407Y375871D01*
X1121529Y377993D01*
X1124300Y379141D01*
X1127300Y379141D01*
X1130071Y377993D01*
X1132193Y375871D01*
X1133341Y373100D01*
X1133341Y370100D01*
X1132193Y367329D01*
X1130071Y365207D01*
X1127300Y364059D01*
X1124300Y364059D01*
G37*
%LPD*%
D10*
X139700Y901700D03*
X165100Y901700D03*
X165100Y482600D03*
X190500Y482600D03*
X355600Y444500D03*
X381000Y444500D03*
D11*
X495300Y431800D03*
X546100Y431800D03*
X520700Y533400D03*
X368300Y736600D03*
X419100Y736600D03*
X393700Y838200D03*
D12*
X603400Y933400D03*
X565150Y920750D03*
X628650Y908050D03*
X451000Y933400D03*
X412750Y920750D03*
X476250Y908050D03*
D13*
X993400Y402000D03*
X968000Y402000D03*
X993400Y427400D03*
X968000Y427400D03*
X993400Y452800D03*
X968000Y452800D03*
X993400Y478200D03*
X968000Y478200D03*
X993400Y503600D03*
X968000Y503600D03*
X993400Y529000D03*
X968000Y529000D03*
X993400Y554400D03*
X968000Y554400D03*
X993400Y579800D03*
X968000Y579800D03*
X993400Y605200D03*
X968000Y605200D03*
X993400Y630600D03*
X968000Y630600D03*
X993400Y656000D03*
X968000Y656000D03*
X993400Y681400D03*
X968000Y681400D03*
X993400Y706800D03*
X968000Y706800D03*
X993400Y732200D03*
X968000Y732200D03*
X993400Y757600D03*
X968000Y757600D03*
X993400Y783000D03*
X968000Y783000D03*
X993400Y808400D03*
X968000Y808400D03*
X993400Y833800D03*
X968000Y833800D03*
X739400Y402000D03*
X714000Y402000D03*
X739400Y427400D03*
X714000Y427400D03*
X739400Y452800D03*
X714000Y452800D03*
X739400Y478200D03*
X714000Y478200D03*
X739400Y503600D03*
X714000Y503600D03*
X739400Y529000D03*
X714000Y529000D03*
X739400Y554400D03*
X714000Y554400D03*
X739400Y579800D03*
X714000Y579800D03*
X739400Y605200D03*
X714000Y605200D03*
X739400Y630600D03*
X714000Y630600D03*
X739400Y656000D03*
X714000Y656000D03*
X739400Y681400D03*
X714000Y681400D03*
X739400Y706800D03*
X714000Y706800D03*
X739400Y732200D03*
X714000Y732200D03*
X739400Y757600D03*
X714000Y757600D03*
X739400Y783000D03*
X714000Y783000D03*
X739400Y808400D03*
X714000Y808400D03*
X739400Y833800D03*
X714000Y833800D03*
M02*
