G04 EAGLE Gerber RS-274X export*
G75*
%MOMM*%
%FSLAX34Y34*%
%LPD*%
%INTop Copper*%
%IPPOS*%
%AMOC8*
5,1,8,0,0,1.08239X$1,22.5*%
G01*
%ADD10C,0.152400*%
%ADD11R,2.540000X5.080000*%
%ADD12R,0.500000X3.000000*%
%ADD13P,1.231672X8X22.500000*%
%ADD14P,1.924489X8X22.500000*%
%ADD15C,1.120000*%
%ADD16R,1.524000X1.524000*%
%ADD17P,1.649562X8X112.500000*%
%ADD18R,4.000000X1.120000*%
%ADD19R,0.500000X0.600000*%
%ADD20C,0.254000*%


D10*
X96012Y153162D02*
X96012Y169418D01*
X101431Y160387D01*
X106849Y169418D01*
X106849Y153162D01*
X116680Y153162D02*
X121195Y153162D01*
X116680Y153162D02*
X116579Y153164D01*
X116478Y153170D01*
X116377Y153179D01*
X116276Y153192D01*
X116176Y153209D01*
X116077Y153230D01*
X115979Y153254D01*
X115882Y153282D01*
X115785Y153314D01*
X115690Y153349D01*
X115597Y153388D01*
X115505Y153430D01*
X115414Y153476D01*
X115326Y153525D01*
X115239Y153577D01*
X115154Y153633D01*
X115071Y153691D01*
X114991Y153753D01*
X114913Y153818D01*
X114837Y153885D01*
X114764Y153955D01*
X114694Y154028D01*
X114627Y154104D01*
X114562Y154182D01*
X114500Y154262D01*
X114442Y154345D01*
X114386Y154430D01*
X114334Y154517D01*
X114285Y154605D01*
X114239Y154696D01*
X114197Y154788D01*
X114158Y154881D01*
X114123Y154976D01*
X114091Y155073D01*
X114063Y155170D01*
X114039Y155268D01*
X114018Y155367D01*
X114001Y155467D01*
X113988Y155568D01*
X113979Y155669D01*
X113973Y155770D01*
X113971Y155871D01*
X113971Y160387D01*
X113973Y160506D01*
X113979Y160626D01*
X113989Y160745D01*
X114003Y160863D01*
X114020Y160982D01*
X114042Y161099D01*
X114067Y161216D01*
X114097Y161331D01*
X114130Y161446D01*
X114167Y161560D01*
X114207Y161672D01*
X114252Y161783D01*
X114300Y161892D01*
X114351Y162000D01*
X114406Y162106D01*
X114465Y162210D01*
X114527Y162312D01*
X114592Y162412D01*
X114661Y162510D01*
X114733Y162606D01*
X114808Y162699D01*
X114885Y162789D01*
X114966Y162877D01*
X115050Y162962D01*
X115137Y163044D01*
X115226Y163124D01*
X115318Y163200D01*
X115412Y163274D01*
X115509Y163344D01*
X115607Y163411D01*
X115708Y163475D01*
X115812Y163535D01*
X115917Y163592D01*
X116024Y163645D01*
X116132Y163695D01*
X116242Y163741D01*
X116354Y163783D01*
X116467Y163822D01*
X116581Y163857D01*
X116696Y163888D01*
X116813Y163916D01*
X116930Y163939D01*
X117047Y163959D01*
X117166Y163975D01*
X117285Y163987D01*
X117404Y163995D01*
X117523Y163999D01*
X117643Y163999D01*
X117762Y163995D01*
X117881Y163987D01*
X118000Y163975D01*
X118119Y163959D01*
X118236Y163939D01*
X118353Y163916D01*
X118470Y163888D01*
X118585Y163857D01*
X118699Y163822D01*
X118812Y163783D01*
X118924Y163741D01*
X119034Y163695D01*
X119142Y163645D01*
X119249Y163592D01*
X119354Y163535D01*
X119458Y163475D01*
X119559Y163411D01*
X119657Y163344D01*
X119754Y163274D01*
X119848Y163200D01*
X119940Y163124D01*
X120029Y163044D01*
X120116Y162962D01*
X120200Y162877D01*
X120281Y162789D01*
X120358Y162699D01*
X120433Y162606D01*
X120505Y162510D01*
X120574Y162412D01*
X120639Y162312D01*
X120701Y162210D01*
X120760Y162106D01*
X120815Y162000D01*
X120866Y161892D01*
X120914Y161783D01*
X120959Y161672D01*
X120999Y161560D01*
X121036Y161446D01*
X121069Y161331D01*
X121099Y161216D01*
X121124Y161099D01*
X121146Y160982D01*
X121163Y160863D01*
X121177Y160745D01*
X121187Y160626D01*
X121193Y160506D01*
X121195Y160387D01*
X121195Y158581D01*
X113971Y158581D01*
X128123Y163999D02*
X128123Y153162D01*
X128123Y163999D02*
X133542Y163999D01*
X133542Y162193D01*
X137162Y163999D02*
X142581Y163999D01*
X138968Y169418D02*
X138968Y155871D01*
X138969Y155871D02*
X138971Y155770D01*
X138977Y155669D01*
X138986Y155568D01*
X138999Y155467D01*
X139016Y155367D01*
X139037Y155268D01*
X139061Y155170D01*
X139089Y155073D01*
X139121Y154976D01*
X139156Y154881D01*
X139195Y154788D01*
X139237Y154696D01*
X139283Y154605D01*
X139332Y154517D01*
X139384Y154430D01*
X139440Y154345D01*
X139498Y154262D01*
X139560Y154182D01*
X139625Y154104D01*
X139692Y154028D01*
X139762Y153955D01*
X139835Y153885D01*
X139911Y153818D01*
X139989Y153753D01*
X140069Y153691D01*
X140152Y153633D01*
X140237Y153577D01*
X140324Y153525D01*
X140412Y153476D01*
X140503Y153430D01*
X140595Y153388D01*
X140688Y153349D01*
X140783Y153314D01*
X140880Y153282D01*
X140977Y153254D01*
X141075Y153230D01*
X141174Y153209D01*
X141274Y153192D01*
X141375Y153179D01*
X141476Y153170D01*
X141577Y153164D01*
X141678Y153162D01*
X142581Y153162D01*
X160408Y153162D02*
X164020Y153162D01*
X160408Y153162D02*
X160290Y153164D01*
X160172Y153170D01*
X160054Y153179D01*
X159937Y153193D01*
X159820Y153210D01*
X159703Y153231D01*
X159588Y153256D01*
X159473Y153285D01*
X159359Y153318D01*
X159247Y153354D01*
X159136Y153394D01*
X159026Y153437D01*
X158917Y153484D01*
X158810Y153534D01*
X158705Y153589D01*
X158602Y153646D01*
X158501Y153707D01*
X158401Y153771D01*
X158304Y153838D01*
X158209Y153908D01*
X158117Y153982D01*
X158026Y154058D01*
X157939Y154138D01*
X157854Y154220D01*
X157772Y154305D01*
X157692Y154392D01*
X157616Y154483D01*
X157542Y154575D01*
X157472Y154670D01*
X157405Y154767D01*
X157341Y154867D01*
X157280Y154968D01*
X157223Y155071D01*
X157168Y155176D01*
X157118Y155283D01*
X157071Y155392D01*
X157028Y155502D01*
X156988Y155613D01*
X156952Y155725D01*
X156919Y155839D01*
X156890Y155954D01*
X156865Y156069D01*
X156844Y156186D01*
X156827Y156303D01*
X156813Y156420D01*
X156804Y156538D01*
X156798Y156656D01*
X156796Y156774D01*
X156795Y156774D02*
X156795Y165806D01*
X156796Y165806D02*
X156798Y165924D01*
X156804Y166042D01*
X156813Y166160D01*
X156827Y166277D01*
X156844Y166394D01*
X156865Y166511D01*
X156890Y166626D01*
X156919Y166741D01*
X156952Y166855D01*
X156988Y166967D01*
X157028Y167078D01*
X157071Y167188D01*
X157118Y167297D01*
X157168Y167404D01*
X157222Y167509D01*
X157280Y167612D01*
X157341Y167713D01*
X157405Y167813D01*
X157472Y167910D01*
X157542Y168005D01*
X157616Y168097D01*
X157692Y168188D01*
X157772Y168275D01*
X157854Y168360D01*
X157939Y168442D01*
X158026Y168522D01*
X158117Y168598D01*
X158209Y168672D01*
X158304Y168742D01*
X158401Y168809D01*
X158501Y168873D01*
X158602Y168934D01*
X158705Y168991D01*
X158810Y169045D01*
X158917Y169096D01*
X159026Y169143D01*
X159136Y169186D01*
X159247Y169226D01*
X159359Y169262D01*
X159473Y169295D01*
X159588Y169324D01*
X159703Y169349D01*
X159820Y169370D01*
X159937Y169387D01*
X160054Y169401D01*
X160172Y169410D01*
X160290Y169416D01*
X160408Y169418D01*
X164020Y169418D01*
X170243Y163999D02*
X170243Y155871D01*
X170245Y155770D01*
X170251Y155669D01*
X170260Y155568D01*
X170273Y155467D01*
X170290Y155367D01*
X170311Y155268D01*
X170335Y155170D01*
X170363Y155073D01*
X170395Y154976D01*
X170430Y154881D01*
X170469Y154788D01*
X170511Y154696D01*
X170557Y154605D01*
X170606Y154517D01*
X170658Y154430D01*
X170714Y154345D01*
X170772Y154262D01*
X170834Y154182D01*
X170899Y154104D01*
X170966Y154028D01*
X171036Y153955D01*
X171109Y153885D01*
X171185Y153818D01*
X171263Y153753D01*
X171343Y153691D01*
X171426Y153633D01*
X171511Y153577D01*
X171598Y153525D01*
X171686Y153476D01*
X171777Y153430D01*
X171869Y153388D01*
X171962Y153349D01*
X172057Y153314D01*
X172154Y153282D01*
X172251Y153254D01*
X172349Y153230D01*
X172448Y153209D01*
X172548Y153192D01*
X172649Y153179D01*
X172750Y153170D01*
X172851Y153164D01*
X172952Y153162D01*
X177468Y153162D01*
X177468Y163999D01*
X184548Y169418D02*
X184548Y155871D01*
X184550Y155770D01*
X184556Y155669D01*
X184565Y155568D01*
X184578Y155467D01*
X184595Y155367D01*
X184616Y155268D01*
X184640Y155170D01*
X184668Y155073D01*
X184700Y154976D01*
X184735Y154881D01*
X184774Y154788D01*
X184816Y154696D01*
X184862Y154605D01*
X184911Y154517D01*
X184963Y154430D01*
X185019Y154345D01*
X185077Y154262D01*
X185139Y154182D01*
X185204Y154104D01*
X185271Y154028D01*
X185341Y153955D01*
X185414Y153885D01*
X185490Y153818D01*
X185568Y153753D01*
X185648Y153691D01*
X185731Y153633D01*
X185816Y153577D01*
X185903Y153525D01*
X185991Y153476D01*
X186082Y153430D01*
X186174Y153388D01*
X186267Y153349D01*
X186362Y153314D01*
X186459Y153282D01*
X186556Y153254D01*
X186654Y153230D01*
X186753Y153209D01*
X186853Y153192D01*
X186954Y153179D01*
X187055Y153170D01*
X187156Y153164D01*
X187257Y153162D01*
X195374Y153162D02*
X198987Y153162D01*
X195374Y153162D02*
X195273Y153164D01*
X195172Y153170D01*
X195071Y153179D01*
X194970Y153192D01*
X194870Y153209D01*
X194771Y153230D01*
X194673Y153254D01*
X194576Y153282D01*
X194479Y153314D01*
X194384Y153349D01*
X194291Y153388D01*
X194199Y153430D01*
X194108Y153476D01*
X194020Y153525D01*
X193933Y153577D01*
X193848Y153633D01*
X193765Y153691D01*
X193685Y153753D01*
X193607Y153818D01*
X193531Y153885D01*
X193458Y153955D01*
X193388Y154028D01*
X193321Y154104D01*
X193256Y154182D01*
X193194Y154262D01*
X193136Y154345D01*
X193080Y154430D01*
X193028Y154517D01*
X192979Y154605D01*
X192933Y154696D01*
X192891Y154788D01*
X192852Y154881D01*
X192817Y154976D01*
X192785Y155073D01*
X192757Y155170D01*
X192733Y155268D01*
X192712Y155367D01*
X192695Y155467D01*
X192682Y155568D01*
X192673Y155669D01*
X192667Y155770D01*
X192665Y155871D01*
X192665Y161290D01*
X192667Y161391D01*
X192673Y161492D01*
X192682Y161593D01*
X192695Y161694D01*
X192712Y161794D01*
X192733Y161893D01*
X192757Y161991D01*
X192785Y162088D01*
X192817Y162185D01*
X192852Y162280D01*
X192891Y162373D01*
X192933Y162465D01*
X192979Y162556D01*
X193028Y162645D01*
X193080Y162731D01*
X193136Y162816D01*
X193194Y162899D01*
X193256Y162979D01*
X193321Y163057D01*
X193388Y163133D01*
X193458Y163206D01*
X193531Y163276D01*
X193607Y163343D01*
X193685Y163408D01*
X193765Y163470D01*
X193848Y163528D01*
X193933Y163584D01*
X194020Y163636D01*
X194108Y163685D01*
X194199Y163731D01*
X194291Y163773D01*
X194384Y163812D01*
X194479Y163847D01*
X194576Y163879D01*
X194673Y163907D01*
X194771Y163931D01*
X194870Y163952D01*
X194970Y163969D01*
X195071Y163982D01*
X195172Y163991D01*
X195273Y163997D01*
X195374Y163999D01*
X198987Y163999D01*
X205153Y163999D02*
X205153Y155871D01*
X205155Y155770D01*
X205161Y155669D01*
X205170Y155568D01*
X205183Y155467D01*
X205200Y155367D01*
X205221Y155268D01*
X205245Y155170D01*
X205273Y155073D01*
X205305Y154976D01*
X205340Y154881D01*
X205379Y154788D01*
X205421Y154696D01*
X205467Y154605D01*
X205516Y154517D01*
X205568Y154430D01*
X205624Y154345D01*
X205682Y154262D01*
X205744Y154182D01*
X205809Y154104D01*
X205876Y154028D01*
X205946Y153955D01*
X206019Y153885D01*
X206095Y153818D01*
X206173Y153753D01*
X206253Y153691D01*
X206336Y153633D01*
X206421Y153577D01*
X206508Y153525D01*
X206596Y153476D01*
X206687Y153430D01*
X206779Y153388D01*
X206872Y153349D01*
X206967Y153314D01*
X207064Y153282D01*
X207161Y153254D01*
X207259Y153230D01*
X207358Y153209D01*
X207458Y153192D01*
X207559Y153179D01*
X207660Y153170D01*
X207761Y153164D01*
X207862Y153162D01*
X212377Y153162D01*
X212377Y163999D01*
X96012Y131318D02*
X101431Y115062D01*
X106849Y131318D01*
X112546Y115062D02*
X117965Y115062D01*
X118083Y115064D01*
X118201Y115070D01*
X118319Y115079D01*
X118436Y115093D01*
X118553Y115110D01*
X118670Y115131D01*
X118785Y115156D01*
X118900Y115185D01*
X119014Y115218D01*
X119126Y115254D01*
X119237Y115294D01*
X119347Y115337D01*
X119456Y115384D01*
X119563Y115434D01*
X119668Y115489D01*
X119771Y115546D01*
X119872Y115607D01*
X119972Y115671D01*
X120069Y115738D01*
X120164Y115808D01*
X120256Y115882D01*
X120347Y115958D01*
X120434Y116038D01*
X120519Y116120D01*
X120601Y116205D01*
X120681Y116292D01*
X120757Y116383D01*
X120831Y116475D01*
X120901Y116570D01*
X120968Y116667D01*
X121032Y116767D01*
X121093Y116868D01*
X121150Y116971D01*
X121205Y117076D01*
X121255Y117183D01*
X121302Y117292D01*
X121345Y117402D01*
X121385Y117513D01*
X121421Y117625D01*
X121454Y117739D01*
X121483Y117854D01*
X121508Y117969D01*
X121529Y118086D01*
X121546Y118203D01*
X121560Y118320D01*
X121569Y118438D01*
X121575Y118556D01*
X121577Y118674D01*
X121577Y120481D01*
X121575Y120599D01*
X121569Y120717D01*
X121560Y120835D01*
X121546Y120952D01*
X121529Y121069D01*
X121508Y121186D01*
X121483Y121301D01*
X121454Y121416D01*
X121421Y121530D01*
X121385Y121642D01*
X121345Y121753D01*
X121302Y121863D01*
X121255Y121972D01*
X121205Y122079D01*
X121150Y122184D01*
X121093Y122287D01*
X121032Y122388D01*
X120968Y122488D01*
X120901Y122585D01*
X120831Y122680D01*
X120757Y122772D01*
X120681Y122863D01*
X120601Y122950D01*
X120519Y123035D01*
X120434Y123117D01*
X120347Y123197D01*
X120256Y123273D01*
X120164Y123347D01*
X120069Y123417D01*
X119972Y123484D01*
X119872Y123548D01*
X119771Y123609D01*
X119668Y123666D01*
X119563Y123721D01*
X119456Y123771D01*
X119347Y123818D01*
X119237Y123861D01*
X119126Y123901D01*
X119014Y123937D01*
X118900Y123970D01*
X118785Y123999D01*
X118670Y124024D01*
X118553Y124045D01*
X118436Y124062D01*
X118319Y124076D01*
X118201Y124085D01*
X118083Y124091D01*
X117965Y124093D01*
X112546Y124093D01*
X112546Y131318D01*
X121577Y131318D01*
X101431Y76962D02*
X96012Y76962D01*
X101431Y76962D02*
X101549Y76964D01*
X101667Y76970D01*
X101785Y76979D01*
X101902Y76993D01*
X102019Y77010D01*
X102136Y77031D01*
X102251Y77056D01*
X102366Y77085D01*
X102480Y77118D01*
X102592Y77154D01*
X102703Y77194D01*
X102813Y77237D01*
X102922Y77284D01*
X103029Y77334D01*
X103134Y77389D01*
X103237Y77446D01*
X103338Y77507D01*
X103438Y77571D01*
X103535Y77638D01*
X103630Y77708D01*
X103722Y77782D01*
X103813Y77858D01*
X103900Y77938D01*
X103985Y78020D01*
X104067Y78105D01*
X104147Y78192D01*
X104223Y78283D01*
X104297Y78375D01*
X104367Y78470D01*
X104434Y78567D01*
X104498Y78667D01*
X104559Y78768D01*
X104616Y78871D01*
X104671Y78976D01*
X104721Y79083D01*
X104768Y79192D01*
X104811Y79302D01*
X104851Y79413D01*
X104887Y79525D01*
X104920Y79639D01*
X104949Y79754D01*
X104974Y79869D01*
X104995Y79986D01*
X105012Y80103D01*
X105026Y80220D01*
X105035Y80338D01*
X105041Y80456D01*
X105043Y80574D01*
X105043Y82381D01*
X105041Y82499D01*
X105035Y82617D01*
X105026Y82735D01*
X105012Y82852D01*
X104995Y82969D01*
X104974Y83086D01*
X104949Y83201D01*
X104920Y83316D01*
X104887Y83430D01*
X104851Y83542D01*
X104811Y83653D01*
X104768Y83763D01*
X104721Y83872D01*
X104671Y83979D01*
X104616Y84084D01*
X104559Y84187D01*
X104498Y84288D01*
X104434Y84388D01*
X104367Y84485D01*
X104297Y84580D01*
X104223Y84672D01*
X104147Y84763D01*
X104067Y84850D01*
X103985Y84935D01*
X103900Y85017D01*
X103813Y85097D01*
X103722Y85173D01*
X103630Y85247D01*
X103535Y85317D01*
X103438Y85384D01*
X103338Y85448D01*
X103237Y85509D01*
X103134Y85566D01*
X103029Y85621D01*
X102922Y85671D01*
X102813Y85718D01*
X102703Y85761D01*
X102592Y85801D01*
X102480Y85837D01*
X102366Y85870D01*
X102251Y85899D01*
X102136Y85924D01*
X102019Y85945D01*
X101902Y85962D01*
X101785Y85976D01*
X101667Y85985D01*
X101549Y85991D01*
X101431Y85993D01*
X96012Y85993D01*
X96012Y93218D01*
X105043Y93218D01*
X118208Y95024D02*
X110983Y75156D01*
X124148Y85993D02*
X129567Y85993D01*
X129685Y85991D01*
X129803Y85985D01*
X129921Y85976D01*
X130038Y85962D01*
X130155Y85945D01*
X130272Y85924D01*
X130387Y85899D01*
X130502Y85870D01*
X130616Y85837D01*
X130728Y85801D01*
X130839Y85761D01*
X130949Y85718D01*
X131058Y85671D01*
X131165Y85621D01*
X131270Y85566D01*
X131373Y85509D01*
X131474Y85448D01*
X131574Y85384D01*
X131671Y85317D01*
X131766Y85247D01*
X131858Y85173D01*
X131949Y85097D01*
X132036Y85017D01*
X132121Y84935D01*
X132203Y84850D01*
X132283Y84763D01*
X132359Y84672D01*
X132433Y84580D01*
X132503Y84485D01*
X132570Y84388D01*
X132634Y84288D01*
X132695Y84187D01*
X132752Y84084D01*
X132807Y83979D01*
X132857Y83872D01*
X132904Y83763D01*
X132947Y83653D01*
X132987Y83542D01*
X133023Y83430D01*
X133056Y83316D01*
X133085Y83201D01*
X133110Y83086D01*
X133131Y82969D01*
X133148Y82852D01*
X133162Y82735D01*
X133171Y82617D01*
X133177Y82499D01*
X133179Y82381D01*
X133179Y81478D01*
X133180Y81478D02*
X133178Y81345D01*
X133172Y81213D01*
X133162Y81081D01*
X133149Y80949D01*
X133131Y80817D01*
X133110Y80687D01*
X133085Y80556D01*
X133056Y80427D01*
X133023Y80299D01*
X132987Y80171D01*
X132947Y80045D01*
X132903Y79920D01*
X132855Y79796D01*
X132804Y79674D01*
X132749Y79553D01*
X132691Y79434D01*
X132629Y79316D01*
X132564Y79201D01*
X132495Y79087D01*
X132424Y78976D01*
X132348Y78867D01*
X132270Y78760D01*
X132189Y78655D01*
X132104Y78553D01*
X132017Y78453D01*
X131927Y78356D01*
X131834Y78261D01*
X131738Y78170D01*
X131640Y78081D01*
X131539Y77995D01*
X131435Y77912D01*
X131329Y77832D01*
X131221Y77756D01*
X131111Y77682D01*
X130998Y77612D01*
X130884Y77545D01*
X130767Y77482D01*
X130649Y77422D01*
X130529Y77365D01*
X130407Y77312D01*
X130284Y77263D01*
X130160Y77217D01*
X130034Y77175D01*
X129907Y77137D01*
X129779Y77102D01*
X129650Y77071D01*
X129521Y77044D01*
X129390Y77021D01*
X129259Y77001D01*
X129127Y76986D01*
X128995Y76974D01*
X128863Y76966D01*
X128730Y76962D01*
X128598Y76962D01*
X128465Y76966D01*
X128333Y76974D01*
X128201Y76986D01*
X128069Y77001D01*
X127938Y77021D01*
X127807Y77044D01*
X127678Y77071D01*
X127549Y77102D01*
X127421Y77137D01*
X127294Y77175D01*
X127168Y77217D01*
X127044Y77263D01*
X126921Y77312D01*
X126799Y77365D01*
X126679Y77422D01*
X126561Y77482D01*
X126444Y77545D01*
X126330Y77612D01*
X126217Y77682D01*
X126107Y77756D01*
X125999Y77832D01*
X125893Y77912D01*
X125789Y77995D01*
X125688Y78081D01*
X125590Y78170D01*
X125494Y78261D01*
X125401Y78356D01*
X125311Y78453D01*
X125224Y78553D01*
X125139Y78655D01*
X125058Y78760D01*
X124980Y78867D01*
X124904Y78976D01*
X124833Y79087D01*
X124764Y79201D01*
X124699Y79316D01*
X124637Y79434D01*
X124579Y79553D01*
X124524Y79674D01*
X124473Y79796D01*
X124425Y79920D01*
X124381Y80045D01*
X124341Y80171D01*
X124305Y80299D01*
X124272Y80427D01*
X124243Y80556D01*
X124218Y80687D01*
X124197Y80817D01*
X124179Y80949D01*
X124166Y81081D01*
X124156Y81213D01*
X124150Y81345D01*
X124148Y81478D01*
X124148Y85993D01*
X124150Y86170D01*
X124157Y86348D01*
X124168Y86525D01*
X124183Y86701D01*
X124202Y86877D01*
X124226Y87053D01*
X124254Y87228D01*
X124287Y87403D01*
X124324Y87576D01*
X124365Y87749D01*
X124410Y87920D01*
X124459Y88090D01*
X124513Y88259D01*
X124570Y88427D01*
X124632Y88593D01*
X124698Y88758D01*
X124768Y88921D01*
X124842Y89082D01*
X124919Y89241D01*
X125001Y89399D01*
X125087Y89554D01*
X125176Y89707D01*
X125269Y89858D01*
X125366Y90007D01*
X125466Y90153D01*
X125570Y90297D01*
X125677Y90438D01*
X125788Y90576D01*
X125902Y90712D01*
X126020Y90845D01*
X126140Y90975D01*
X126264Y91102D01*
X126391Y91226D01*
X126521Y91346D01*
X126654Y91464D01*
X126789Y91578D01*
X126928Y91689D01*
X127069Y91796D01*
X127213Y91900D01*
X127359Y92000D01*
X127508Y92097D01*
X127659Y92190D01*
X127812Y92279D01*
X127967Y92365D01*
X128125Y92447D01*
X128284Y92524D01*
X128445Y92598D01*
X128608Y92668D01*
X128773Y92734D01*
X128939Y92796D01*
X129107Y92853D01*
X129276Y92907D01*
X129446Y92956D01*
X129617Y93001D01*
X129790Y93042D01*
X129963Y93079D01*
X130138Y93112D01*
X130313Y93140D01*
X130489Y93164D01*
X130665Y93183D01*
X130841Y93198D01*
X131018Y93209D01*
X131196Y93216D01*
X131373Y93218D01*
X146344Y95024D02*
X139119Y75156D01*
X157251Y93218D02*
X157376Y93216D01*
X157501Y93210D01*
X157626Y93201D01*
X157750Y93187D01*
X157874Y93170D01*
X157998Y93149D01*
X158120Y93124D01*
X158242Y93095D01*
X158363Y93063D01*
X158483Y93027D01*
X158602Y92987D01*
X158719Y92944D01*
X158835Y92897D01*
X158950Y92846D01*
X159062Y92792D01*
X159174Y92734D01*
X159283Y92674D01*
X159390Y92609D01*
X159496Y92542D01*
X159599Y92471D01*
X159700Y92397D01*
X159799Y92320D01*
X159895Y92240D01*
X159989Y92157D01*
X160080Y92072D01*
X160169Y91983D01*
X160254Y91892D01*
X160337Y91798D01*
X160417Y91702D01*
X160494Y91603D01*
X160568Y91502D01*
X160639Y91399D01*
X160706Y91293D01*
X160771Y91186D01*
X160831Y91077D01*
X160889Y90965D01*
X160943Y90853D01*
X160994Y90738D01*
X161041Y90622D01*
X161084Y90505D01*
X161124Y90386D01*
X161160Y90266D01*
X161192Y90145D01*
X161221Y90023D01*
X161246Y89901D01*
X161267Y89777D01*
X161284Y89653D01*
X161298Y89529D01*
X161307Y89404D01*
X161313Y89279D01*
X161315Y89154D01*
X157251Y93218D02*
X157108Y93216D01*
X156966Y93210D01*
X156823Y93200D01*
X156681Y93187D01*
X156540Y93169D01*
X156398Y93148D01*
X156258Y93123D01*
X156118Y93094D01*
X155979Y93061D01*
X155841Y93024D01*
X155704Y92984D01*
X155569Y92940D01*
X155434Y92892D01*
X155301Y92840D01*
X155169Y92785D01*
X155039Y92726D01*
X154911Y92664D01*
X154784Y92598D01*
X154659Y92529D01*
X154536Y92457D01*
X154416Y92381D01*
X154297Y92302D01*
X154180Y92219D01*
X154066Y92134D01*
X153954Y92045D01*
X153845Y91954D01*
X153738Y91859D01*
X153633Y91762D01*
X153532Y91661D01*
X153433Y91558D01*
X153337Y91453D01*
X153244Y91344D01*
X153154Y91233D01*
X153067Y91120D01*
X152983Y91005D01*
X152903Y90887D01*
X152825Y90767D01*
X152751Y90645D01*
X152681Y90521D01*
X152613Y90395D01*
X152550Y90267D01*
X152489Y90138D01*
X152432Y90007D01*
X152379Y89875D01*
X152330Y89741D01*
X152284Y89606D01*
X159960Y85993D02*
X160054Y86085D01*
X160144Y86179D01*
X160232Y86276D01*
X160317Y86376D01*
X160399Y86478D01*
X160478Y86583D01*
X160553Y86690D01*
X160625Y86799D01*
X160694Y86910D01*
X160760Y87024D01*
X160822Y87139D01*
X160881Y87256D01*
X160936Y87375D01*
X160987Y87495D01*
X161035Y87617D01*
X161080Y87740D01*
X161120Y87864D01*
X161157Y87990D01*
X161190Y88117D01*
X161219Y88244D01*
X161245Y88373D01*
X161266Y88502D01*
X161284Y88632D01*
X161297Y88762D01*
X161307Y88892D01*
X161313Y89023D01*
X161315Y89154D01*
X159961Y85993D02*
X152284Y76962D01*
X161315Y76962D01*
X167916Y85090D02*
X167920Y85410D01*
X167931Y85729D01*
X167950Y86049D01*
X167977Y86367D01*
X168011Y86685D01*
X168053Y87002D01*
X168103Y87318D01*
X168160Y87633D01*
X168224Y87946D01*
X168296Y88258D01*
X168375Y88568D01*
X168462Y88875D01*
X168556Y89181D01*
X168657Y89484D01*
X168766Y89785D01*
X168881Y90083D01*
X169004Y90379D01*
X169134Y90671D01*
X169271Y90960D01*
X169270Y90961D02*
X169309Y91069D01*
X169352Y91176D01*
X169398Y91281D01*
X169449Y91385D01*
X169502Y91487D01*
X169559Y91587D01*
X169620Y91685D01*
X169684Y91780D01*
X169751Y91874D01*
X169822Y91965D01*
X169895Y92054D01*
X169972Y92140D01*
X170051Y92223D01*
X170133Y92304D01*
X170218Y92382D01*
X170306Y92456D01*
X170396Y92528D01*
X170488Y92596D01*
X170583Y92662D01*
X170680Y92724D01*
X170779Y92782D01*
X170881Y92838D01*
X170983Y92889D01*
X171088Y92937D01*
X171194Y92982D01*
X171302Y93023D01*
X171411Y93060D01*
X171521Y93093D01*
X171633Y93122D01*
X171745Y93148D01*
X171858Y93170D01*
X171972Y93187D01*
X172086Y93201D01*
X172201Y93211D01*
X172316Y93217D01*
X172431Y93219D01*
X172431Y93218D02*
X172546Y93216D01*
X172661Y93210D01*
X172776Y93200D01*
X172890Y93186D01*
X173004Y93169D01*
X173117Y93147D01*
X173229Y93121D01*
X173341Y93092D01*
X173451Y93059D01*
X173560Y93022D01*
X173668Y92981D01*
X173774Y92936D01*
X173879Y92888D01*
X173981Y92837D01*
X174082Y92781D01*
X174182Y92723D01*
X174279Y92661D01*
X174373Y92596D01*
X174466Y92527D01*
X174556Y92455D01*
X174644Y92381D01*
X174729Y92303D01*
X174811Y92222D01*
X174890Y92139D01*
X174967Y92053D01*
X175040Y91964D01*
X175111Y91873D01*
X175178Y91779D01*
X175242Y91684D01*
X175303Y91586D01*
X175360Y91486D01*
X175413Y91384D01*
X175464Y91280D01*
X175510Y91175D01*
X175553Y91068D01*
X175592Y90960D01*
X175591Y90960D02*
X175728Y90671D01*
X175858Y90379D01*
X175981Y90083D01*
X176096Y89785D01*
X176205Y89484D01*
X176306Y89181D01*
X176400Y88875D01*
X176487Y88568D01*
X176566Y88258D01*
X176638Y87946D01*
X176702Y87633D01*
X176759Y87318D01*
X176809Y87002D01*
X176851Y86685D01*
X176885Y86367D01*
X176912Y86049D01*
X176931Y85729D01*
X176942Y85410D01*
X176946Y85090D01*
X167916Y85090D02*
X167920Y84770D01*
X167931Y84451D01*
X167950Y84131D01*
X167977Y83813D01*
X168011Y83495D01*
X168053Y83178D01*
X168103Y82862D01*
X168160Y82547D01*
X168224Y82234D01*
X168296Y81922D01*
X168375Y81612D01*
X168462Y81305D01*
X168556Y80999D01*
X168657Y80696D01*
X168766Y80395D01*
X168881Y80097D01*
X169004Y79801D01*
X169134Y79509D01*
X169271Y79220D01*
X169270Y79220D02*
X169309Y79112D01*
X169352Y79005D01*
X169398Y78900D01*
X169449Y78796D01*
X169502Y78694D01*
X169559Y78594D01*
X169620Y78496D01*
X169684Y78401D01*
X169751Y78307D01*
X169822Y78216D01*
X169895Y78127D01*
X169972Y78041D01*
X170051Y77958D01*
X170133Y77877D01*
X170218Y77799D01*
X170306Y77725D01*
X170396Y77653D01*
X170489Y77584D01*
X170583Y77519D01*
X170680Y77457D01*
X170780Y77399D01*
X170881Y77343D01*
X170983Y77292D01*
X171088Y77244D01*
X171194Y77199D01*
X171302Y77158D01*
X171411Y77121D01*
X171521Y77088D01*
X171633Y77059D01*
X171745Y77033D01*
X171858Y77011D01*
X171972Y76994D01*
X172086Y76980D01*
X172201Y76970D01*
X172316Y76964D01*
X172431Y76962D01*
X175591Y79220D02*
X175728Y79509D01*
X175858Y79801D01*
X175981Y80097D01*
X176096Y80395D01*
X176205Y80696D01*
X176306Y80999D01*
X176400Y81305D01*
X176487Y81612D01*
X176566Y81922D01*
X176638Y82234D01*
X176702Y82547D01*
X176759Y82862D01*
X176809Y83178D01*
X176851Y83495D01*
X176885Y83813D01*
X176912Y84131D01*
X176931Y84451D01*
X176942Y84770D01*
X176946Y85090D01*
X175592Y79220D02*
X175553Y79112D01*
X175510Y79005D01*
X175464Y78900D01*
X175413Y78796D01*
X175360Y78694D01*
X175303Y78594D01*
X175242Y78496D01*
X175178Y78401D01*
X175111Y78307D01*
X175040Y78216D01*
X174967Y78127D01*
X174890Y78041D01*
X174811Y77958D01*
X174729Y77877D01*
X174644Y77799D01*
X174556Y77725D01*
X174466Y77653D01*
X174373Y77584D01*
X174279Y77519D01*
X174182Y77457D01*
X174082Y77399D01*
X173981Y77343D01*
X173878Y77292D01*
X173774Y77244D01*
X173668Y77199D01*
X173560Y77158D01*
X173451Y77121D01*
X173341Y77088D01*
X173229Y77059D01*
X173117Y77033D01*
X173004Y77011D01*
X172890Y76994D01*
X172776Y76980D01*
X172661Y76970D01*
X172546Y76964D01*
X172431Y76962D01*
X168819Y80574D02*
X176044Y89606D01*
X188514Y93218D02*
X188639Y93216D01*
X188764Y93210D01*
X188889Y93201D01*
X189013Y93187D01*
X189137Y93170D01*
X189261Y93149D01*
X189383Y93124D01*
X189505Y93095D01*
X189626Y93063D01*
X189746Y93027D01*
X189865Y92987D01*
X189982Y92944D01*
X190098Y92897D01*
X190213Y92846D01*
X190325Y92792D01*
X190437Y92734D01*
X190546Y92674D01*
X190653Y92609D01*
X190759Y92542D01*
X190862Y92471D01*
X190963Y92397D01*
X191062Y92320D01*
X191158Y92240D01*
X191252Y92157D01*
X191343Y92072D01*
X191432Y91983D01*
X191517Y91892D01*
X191600Y91798D01*
X191680Y91702D01*
X191757Y91603D01*
X191831Y91502D01*
X191902Y91399D01*
X191969Y91293D01*
X192034Y91186D01*
X192094Y91077D01*
X192152Y90965D01*
X192206Y90853D01*
X192257Y90738D01*
X192304Y90622D01*
X192347Y90505D01*
X192387Y90386D01*
X192423Y90266D01*
X192455Y90145D01*
X192484Y90023D01*
X192509Y89901D01*
X192530Y89777D01*
X192547Y89653D01*
X192561Y89529D01*
X192570Y89404D01*
X192576Y89279D01*
X192578Y89154D01*
X188514Y93218D02*
X188371Y93216D01*
X188229Y93210D01*
X188086Y93200D01*
X187944Y93187D01*
X187803Y93169D01*
X187661Y93148D01*
X187521Y93123D01*
X187381Y93094D01*
X187242Y93061D01*
X187104Y93024D01*
X186967Y92984D01*
X186832Y92940D01*
X186697Y92892D01*
X186564Y92840D01*
X186432Y92785D01*
X186302Y92726D01*
X186174Y92664D01*
X186047Y92598D01*
X185922Y92529D01*
X185799Y92457D01*
X185679Y92381D01*
X185560Y92302D01*
X185443Y92219D01*
X185329Y92134D01*
X185217Y92045D01*
X185108Y91954D01*
X185001Y91859D01*
X184896Y91762D01*
X184795Y91661D01*
X184696Y91558D01*
X184600Y91453D01*
X184507Y91344D01*
X184417Y91233D01*
X184330Y91120D01*
X184246Y91005D01*
X184166Y90887D01*
X184088Y90767D01*
X184014Y90645D01*
X183944Y90521D01*
X183876Y90395D01*
X183813Y90267D01*
X183752Y90138D01*
X183695Y90007D01*
X183642Y89875D01*
X183593Y89741D01*
X183547Y89606D01*
X191223Y85993D02*
X191317Y86085D01*
X191407Y86179D01*
X191495Y86276D01*
X191580Y86376D01*
X191662Y86478D01*
X191741Y86583D01*
X191816Y86690D01*
X191888Y86799D01*
X191957Y86910D01*
X192023Y87024D01*
X192085Y87139D01*
X192144Y87256D01*
X192199Y87375D01*
X192250Y87495D01*
X192298Y87617D01*
X192343Y87740D01*
X192383Y87864D01*
X192420Y87990D01*
X192453Y88117D01*
X192482Y88244D01*
X192508Y88373D01*
X192529Y88502D01*
X192547Y88632D01*
X192560Y88762D01*
X192570Y88892D01*
X192576Y89023D01*
X192578Y89154D01*
X191223Y85993D02*
X183547Y76962D01*
X192578Y76962D01*
X199178Y76962D02*
X204597Y76962D01*
X204715Y76964D01*
X204833Y76970D01*
X204951Y76979D01*
X205068Y76993D01*
X205185Y77010D01*
X205302Y77031D01*
X205417Y77056D01*
X205532Y77085D01*
X205646Y77118D01*
X205758Y77154D01*
X205869Y77194D01*
X205979Y77237D01*
X206088Y77284D01*
X206195Y77334D01*
X206300Y77389D01*
X206403Y77446D01*
X206504Y77507D01*
X206604Y77571D01*
X206701Y77638D01*
X206796Y77708D01*
X206888Y77782D01*
X206979Y77858D01*
X207066Y77938D01*
X207151Y78020D01*
X207233Y78105D01*
X207313Y78192D01*
X207389Y78283D01*
X207463Y78375D01*
X207533Y78470D01*
X207600Y78567D01*
X207664Y78667D01*
X207725Y78768D01*
X207782Y78871D01*
X207837Y78976D01*
X207887Y79083D01*
X207934Y79192D01*
X207977Y79302D01*
X208017Y79413D01*
X208053Y79525D01*
X208086Y79639D01*
X208115Y79754D01*
X208140Y79869D01*
X208161Y79986D01*
X208178Y80103D01*
X208192Y80220D01*
X208201Y80338D01*
X208207Y80456D01*
X208209Y80574D01*
X208209Y82381D01*
X208207Y82499D01*
X208201Y82617D01*
X208192Y82735D01*
X208178Y82852D01*
X208161Y82969D01*
X208140Y83086D01*
X208115Y83201D01*
X208086Y83316D01*
X208053Y83430D01*
X208017Y83542D01*
X207977Y83653D01*
X207934Y83763D01*
X207887Y83872D01*
X207837Y83979D01*
X207782Y84084D01*
X207725Y84187D01*
X207664Y84288D01*
X207600Y84388D01*
X207533Y84485D01*
X207463Y84580D01*
X207389Y84672D01*
X207313Y84763D01*
X207233Y84850D01*
X207151Y84935D01*
X207066Y85017D01*
X206979Y85097D01*
X206888Y85173D01*
X206796Y85247D01*
X206701Y85317D01*
X206604Y85384D01*
X206504Y85448D01*
X206403Y85509D01*
X206300Y85566D01*
X206195Y85621D01*
X206088Y85671D01*
X205979Y85718D01*
X205869Y85761D01*
X205758Y85801D01*
X205646Y85837D01*
X205532Y85870D01*
X205417Y85899D01*
X205302Y85924D01*
X205185Y85945D01*
X205068Y85962D01*
X204951Y85976D01*
X204833Y85985D01*
X204715Y85991D01*
X204597Y85993D01*
X199178Y85993D01*
X199178Y93218D01*
X208209Y93218D01*
D11*
X1117600Y368300D03*
X1524000Y368300D03*
D12*
X1140800Y379300D03*
X1150800Y379300D03*
X1160800Y379300D03*
X1170800Y379300D03*
X1180800Y379300D03*
X1190800Y379300D03*
X1200800Y379300D03*
X1210800Y379300D03*
X1220800Y379300D03*
X1230800Y379300D03*
X1240800Y379300D03*
X1250800Y379300D03*
X1260800Y379300D03*
X1270800Y379300D03*
X1280800Y379300D03*
X1290800Y379300D03*
X1300800Y379300D03*
X1310800Y379300D03*
X1320800Y379300D03*
X1330800Y379300D03*
X1340800Y379300D03*
X1350800Y379300D03*
X1360800Y379300D03*
X1370800Y379300D03*
X1380800Y379300D03*
X1390800Y379300D03*
X1400800Y379300D03*
X1410800Y379300D03*
X1420800Y379300D03*
X1430800Y379300D03*
X1440800Y379300D03*
X1450800Y379300D03*
X1460800Y379300D03*
X1470800Y379300D03*
X1480800Y379300D03*
X1490800Y379300D03*
X1500800Y379300D03*
D13*
X139700Y901700D03*
X165100Y901700D03*
X165100Y482600D03*
X190500Y482600D03*
X355600Y444500D03*
X381000Y444500D03*
D14*
X495300Y431800D03*
X546100Y431800D03*
X520700Y533400D03*
X368300Y736600D03*
X419100Y736600D03*
X393700Y838200D03*
D15*
X603400Y933400D03*
X565150Y920750D03*
X628650Y908050D03*
X451000Y933400D03*
X412750Y920750D03*
X476250Y908050D03*
D16*
X993400Y402000D03*
D17*
X968000Y402000D03*
X993400Y427400D03*
X968000Y427400D03*
X993400Y452800D03*
X968000Y452800D03*
X993400Y478200D03*
X968000Y478200D03*
X993400Y503600D03*
X968000Y503600D03*
X993400Y529000D03*
X968000Y529000D03*
X993400Y554400D03*
X968000Y554400D03*
X993400Y579800D03*
X968000Y579800D03*
X993400Y605200D03*
X968000Y605200D03*
X993400Y630600D03*
X968000Y630600D03*
X993400Y656000D03*
X968000Y656000D03*
X993400Y681400D03*
X968000Y681400D03*
X993400Y706800D03*
X968000Y706800D03*
X993400Y732200D03*
X968000Y732200D03*
X993400Y757600D03*
X968000Y757600D03*
X993400Y783000D03*
X968000Y783000D03*
X993400Y808400D03*
X968000Y808400D03*
X993400Y833800D03*
X968000Y833800D03*
D16*
X739400Y402000D03*
D17*
X714000Y402000D03*
X739400Y427400D03*
X714000Y427400D03*
X739400Y452800D03*
X714000Y452800D03*
X739400Y478200D03*
X714000Y478200D03*
X739400Y503600D03*
X714000Y503600D03*
X739400Y529000D03*
X714000Y529000D03*
X739400Y554400D03*
X714000Y554400D03*
X739400Y579800D03*
X714000Y579800D03*
X739400Y605200D03*
X714000Y605200D03*
X739400Y630600D03*
X714000Y630600D03*
X739400Y656000D03*
X714000Y656000D03*
X739400Y681400D03*
X714000Y681400D03*
X739400Y706800D03*
X714000Y706800D03*
X739400Y732200D03*
X714000Y732200D03*
X739400Y757600D03*
X714000Y757600D03*
X739400Y783000D03*
X714000Y783000D03*
X739400Y808400D03*
X714000Y808400D03*
X739400Y833800D03*
X714000Y833800D03*
D18*
X825200Y180500D03*
X825200Y200500D03*
X825200Y155500D03*
X825200Y225500D03*
D19*
X160100Y355600D03*
X170100Y355600D03*
X134700Y685800D03*
X144700Y685800D03*
X401400Y546100D03*
X411400Y546100D03*
D20*
X1200800Y395810D02*
X1200800Y379300D01*
X1200800Y395810D02*
X1134110Y462500D01*
X1134110Y928370D01*
X884770Y928370D01*
X739400Y783000D01*
X1210800Y404700D02*
X1210800Y379300D01*
X1210800Y404700D02*
X1188100Y427400D01*
X968000Y427400D01*
X1218260Y423750D02*
X1218260Y381840D01*
X1220800Y379300D01*
X1218260Y423750D02*
X884410Y757600D01*
X739400Y757600D01*
X1227110Y382990D02*
X1230800Y379300D01*
X1227110Y382990D02*
X1227110Y395878D01*
X1062990Y267136D02*
X936864Y141010D01*
X801518Y141010D01*
X791230Y151298D01*
X1224878Y398110D02*
X1227110Y395878D01*
X1062990Y357178D02*
X1062990Y267136D01*
X916940Y348228D02*
X916940Y579120D01*
X791230Y222518D02*
X791230Y151298D01*
X791230Y222518D02*
X916940Y348228D01*
X1138462Y398110D02*
X1224878Y398110D01*
X1138462Y398110D02*
X1133982Y402590D01*
X1124694Y402590D01*
X1038860Y488424D01*
X1038860Y903804D01*
X1035884Y906780D01*
X1028700Y484216D02*
X1109364Y403552D01*
X1062990Y357178D01*
X656590Y903804D02*
X659566Y906780D01*
X656590Y903804D02*
X656590Y899596D01*
X659566Y896620D01*
X1028700Y896620D01*
X1028700Y484216D01*
X1035884Y906780D02*
X659566Y906780D01*
X1230800Y426290D02*
X1230800Y379300D01*
X1230800Y426290D02*
X924890Y732200D01*
X739400Y732200D01*
X1033780Y901700D02*
X1033780Y486320D01*
X1134110Y385990D02*
X1140800Y379300D01*
X1134110Y385990D02*
X1134110Y395278D01*
X1131878Y397510D01*
X1122590Y397510D01*
X1033780Y486320D01*
X1033780Y901700D02*
X661670Y901700D01*
X1440800Y445120D02*
X1440800Y379300D01*
X1440800Y445120D02*
X1442720Y447040D01*
X1259160Y630600D01*
X968000Y630600D01*
X718735Y619170D02*
X709266Y619170D01*
X718735Y619170D02*
X725430Y625866D01*
X744135Y644570D02*
X750830Y651266D01*
X750830Y660735D01*
X744135Y667430D01*
X725430Y711535D02*
X718735Y718230D01*
X702570Y736935D02*
X709266Y743630D01*
X725430Y632795D02*
X725430Y625866D01*
X725430Y632795D02*
X737206Y644570D01*
X744135Y644570D01*
X744135Y667430D02*
X737206Y667430D01*
X725430Y679206D01*
X718735Y718230D02*
X711806Y718230D01*
X702570Y727466D01*
X702570Y736935D01*
X709266Y743630D02*
X829570Y743630D01*
X968000Y605200D01*
X591836Y736600D02*
X419100Y736600D01*
X591836Y736600D02*
X709266Y619170D01*
X725430Y679206D02*
X725430Y711535D01*
X546100Y609600D02*
X419100Y736600D01*
X546100Y609600D02*
X546100Y431800D01*
X143635Y911200D02*
X135765Y911200D01*
X121920Y277296D02*
X124896Y274320D01*
X713304Y274320D01*
X224665Y435000D02*
X174600Y485066D01*
X174600Y486535D01*
X151010Y903825D02*
X143635Y911200D01*
X750830Y311846D02*
X713304Y274320D01*
X750830Y311846D02*
X750830Y366020D01*
X850900Y466090D01*
X135765Y911200D02*
X121920Y897355D01*
X121920Y277296D01*
X422300Y435000D02*
X520700Y533400D01*
X422300Y435000D02*
X224665Y435000D01*
X151010Y510125D02*
X151010Y903825D01*
X151010Y510125D02*
X174600Y486535D01*
X850900Y484465D02*
X850900Y466090D01*
X850900Y484465D02*
X741595Y593770D01*
X734666Y593770D01*
X727970Y609935D02*
X734666Y616630D01*
X727970Y609935D02*
X727970Y600466D01*
X734666Y593770D01*
X963266Y568370D02*
X972735Y568370D01*
X979430Y575066D01*
X998135Y593770D02*
X1004830Y600466D01*
X1004830Y609935D01*
X956570Y609446D02*
X954774Y609446D01*
X979430Y581995D02*
X979430Y575066D01*
X979430Y581995D02*
X991206Y593770D01*
X998135Y593770D01*
X937866Y593770D02*
X741595Y593770D01*
X937866Y593770D02*
X963266Y568370D01*
X1004830Y609935D02*
X993400Y621365D01*
X993400Y630600D01*
X954774Y609446D02*
X947590Y616630D01*
X734666Y616630D01*
X441590Y937298D02*
X447102Y942810D01*
X972735Y692830D02*
X979430Y686135D01*
X979430Y669970D02*
X993400Y656000D01*
X972735Y692830D02*
X956570Y692830D01*
X979430Y686135D02*
X979430Y669970D01*
X461982Y942810D02*
X447102Y942810D01*
X461982Y942810D02*
X559562Y845230D01*
X804170Y845230D01*
X956570Y692830D01*
X441590Y886090D02*
X393700Y838200D01*
X441590Y886090D02*
X441590Y937298D01*
X718735Y667430D02*
X725430Y660735D01*
X725430Y651266D01*
X466940Y917460D02*
X451000Y933400D01*
X714000Y639836D02*
X714000Y630600D01*
X480148Y917460D02*
X466940Y917460D01*
X725430Y651266D02*
X714000Y639836D01*
X702570Y695038D02*
X480148Y917460D01*
X702570Y695038D02*
X702570Y676666D01*
X711806Y667430D01*
X718735Y667430D01*
X972735Y718230D02*
X979430Y711535D01*
X998135Y692830D02*
X1004830Y686135D01*
X1004830Y651266D02*
X998135Y644570D01*
X988666Y644570D01*
X981970Y651266D01*
X972735Y616630D02*
X963754Y616630D01*
X972735Y616630D02*
X979430Y609935D01*
X979430Y600466D01*
X972735Y593770D01*
X963266Y593770D01*
X603400Y919992D02*
X603400Y933400D01*
X603400Y919992D02*
X673082Y850310D01*
X806274Y850310D01*
X938354Y718230D01*
X979430Y711535D02*
X979430Y704606D01*
X991206Y692830D01*
X998135Y692830D01*
X981970Y658195D02*
X981970Y651266D01*
X981970Y658195D02*
X970195Y669970D01*
X963266Y669970D01*
X951836Y605200D02*
X739400Y605200D01*
X938354Y718230D02*
X972735Y718230D01*
X951836Y605200D02*
X963266Y593770D01*
X963754Y616630D02*
X811354Y769030D01*
X1004830Y686135D02*
X1004830Y651266D01*
X811354Y769030D02*
X711806Y769030D01*
X813406Y819830D02*
X963266Y669970D01*
X813406Y819830D02*
X709266Y819830D01*
X702570Y813135D01*
X702570Y778266D01*
X711806Y769030D01*
X801390Y173322D02*
X803622Y171090D01*
X801390Y173322D02*
X801390Y187678D01*
X809610Y171090D02*
X825200Y155500D01*
X809610Y171090D02*
X803622Y171090D01*
X1004830Y446030D02*
X1014730Y455930D01*
X804802Y191090D02*
X801390Y187678D01*
X804802Y191090D02*
X846778Y191090D01*
X1004830Y349142D01*
X1004830Y446030D01*
X996530Y455930D02*
X1014730Y455930D01*
X996530Y455930D02*
X993400Y452800D01*
X830710Y186010D02*
X825200Y180500D01*
X830710Y186010D02*
X848882Y186010D01*
X1019810Y356938D01*
X993400Y503600D02*
X995260Y505460D01*
X1019810Y478737D02*
X1019810Y356938D01*
X1019810Y478737D02*
X1018540Y480007D01*
X1018540Y505460D01*
X995260Y505460D01*
X840790Y216090D02*
X825200Y200500D01*
X840790Y216090D02*
X846778Y216090D01*
X993400Y519765D02*
X993400Y528320D01*
X993400Y529000D01*
X802698Y196170D02*
X796310Y189782D01*
X826858Y196170D02*
X846778Y216090D01*
X826858Y196170D02*
X802698Y196170D01*
X796310Y189782D02*
X796310Y153402D01*
X803622Y146090D01*
X934760Y146090D01*
X1057910Y269240D01*
X1011180Y510540D02*
X993400Y528320D01*
X1011180Y510540D02*
X1021914Y510540D01*
X1057910Y447822D02*
X1057910Y269240D01*
X1057910Y447822D02*
X1023620Y482112D01*
X1023620Y508834D01*
X1021914Y510540D01*
X847090Y247390D02*
X825200Y225500D01*
X993400Y570565D02*
X993400Y579800D01*
X847090Y262542D02*
X847090Y247390D01*
X981970Y559135D02*
X993400Y570565D01*
X981970Y397422D02*
X847090Y262542D01*
X981970Y397422D02*
X981970Y559135D01*
X139700Y691688D02*
X139700Y901700D01*
X139700Y691688D02*
X138390Y690378D01*
X138390Y689490D01*
X134700Y685800D01*
X165100Y482600D02*
X165100Y361488D01*
X163790Y360178D01*
X163790Y359290D01*
X160100Y355600D01*
X355600Y444500D02*
X401400Y490300D01*
X401400Y546100D01*
X406400Y731339D02*
X406400Y741861D01*
X413839Y749300D01*
X679620Y656000D02*
X714000Y656000D01*
X411400Y726339D02*
X411400Y546100D01*
X411400Y726339D02*
X406400Y731339D01*
X413839Y749300D02*
X586320Y749300D01*
X679620Y656000D01*
X233600Y419100D02*
X170100Y355600D01*
X739400Y436636D02*
X750830Y448066D01*
X739400Y436636D02*
X739400Y427400D01*
X741602Y517562D02*
X711798Y517562D01*
X741602Y517562D02*
X750830Y508335D01*
X750830Y448066D01*
X613336Y419100D02*
X233600Y419100D01*
X613336Y419100D02*
X711798Y517562D01*
X144700Y685800D02*
X141010Y682110D01*
X141010Y681222D01*
X127000Y667212D02*
X127000Y279400D01*
X127000Y667212D02*
X141010Y681222D01*
X127000Y279400D02*
X711200Y279400D01*
X727970Y508335D02*
X732118Y512482D01*
X727970Y296170D02*
X711200Y279400D01*
X727970Y296170D02*
X727970Y508335D01*
X732118Y512482D02*
X722882Y512482D01*
X714000Y503600D01*
X1450800Y379300D02*
X1450800Y365004D01*
X1192746Y106950D01*
X828393Y106950D01*
X786150Y149193D01*
X786150Y309389D01*
X883920Y407159D01*
X883920Y553284D01*
X914836Y584200D01*
X938200Y584200D01*
X968000Y554400D01*
X1470800Y455790D02*
X1470800Y379300D01*
X1346790Y579800D02*
X968000Y579800D01*
X1346790Y579800D02*
X1470800Y455790D01*
M02*
