G04 EAGLE Gerber RS-274X export*
G75*
%MOMM*%
%FSLAX34Y34*%
%LPD*%
%IN*%
%IPPOS*%
%AMOC8*
5,1,8,0,0,1.08239X$1,22.5*%
G01*
%ADD10C,0.254000*%


D10*
X0Y0D02*
X1600000Y0D01*
X1600000Y1000000D01*
X0Y1000000D01*
X0Y0D01*
X1130800Y371319D02*
X1130737Y370761D01*
X1130612Y370214D01*
X1130427Y369684D01*
X1130183Y369178D01*
X1129884Y368702D01*
X1129534Y368263D01*
X1129137Y367866D01*
X1128698Y367516D01*
X1128222Y367217D01*
X1127716Y366973D01*
X1127186Y366788D01*
X1126639Y366663D01*
X1126081Y366600D01*
X1125519Y366600D01*
X1124961Y366663D01*
X1124414Y366788D01*
X1123884Y366973D01*
X1123378Y367217D01*
X1122902Y367516D01*
X1122463Y367866D01*
X1122066Y368263D01*
X1121716Y368702D01*
X1121417Y369178D01*
X1121173Y369684D01*
X1120988Y370214D01*
X1120863Y370761D01*
X1120800Y371319D01*
X1120800Y371881D01*
X1120863Y372439D01*
X1120988Y372986D01*
X1121173Y373516D01*
X1121417Y374022D01*
X1121716Y374498D01*
X1122066Y374937D01*
X1122463Y375334D01*
X1122902Y375684D01*
X1123378Y375983D01*
X1123884Y376227D01*
X1124414Y376412D01*
X1124961Y376537D01*
X1125519Y376600D01*
X1126081Y376600D01*
X1126639Y376537D01*
X1127186Y376412D01*
X1127716Y376227D01*
X1128222Y375983D01*
X1128698Y375684D01*
X1129137Y375334D01*
X1129534Y374937D01*
X1129884Y374498D01*
X1130183Y374022D01*
X1130427Y373516D01*
X1130612Y372986D01*
X1130737Y372439D01*
X1130800Y371881D01*
X1130800Y371319D01*
X1520800Y371319D02*
X1520737Y370761D01*
X1520612Y370214D01*
X1520427Y369684D01*
X1520183Y369178D01*
X1519884Y368702D01*
X1519534Y368263D01*
X1519137Y367866D01*
X1518698Y367516D01*
X1518222Y367217D01*
X1517716Y366973D01*
X1517186Y366788D01*
X1516639Y366663D01*
X1516081Y366600D01*
X1515519Y366600D01*
X1514961Y366663D01*
X1514414Y366788D01*
X1513884Y366973D01*
X1513378Y367217D01*
X1512902Y367516D01*
X1512463Y367866D01*
X1512066Y368263D01*
X1511716Y368702D01*
X1511417Y369178D01*
X1511173Y369684D01*
X1510988Y370214D01*
X1510863Y370761D01*
X1510800Y371319D01*
X1510800Y371881D01*
X1510863Y372439D01*
X1510988Y372986D01*
X1511173Y373516D01*
X1511417Y374022D01*
X1511716Y374498D01*
X1512066Y374937D01*
X1512463Y375334D01*
X1512902Y375684D01*
X1513378Y375983D01*
X1513884Y376227D01*
X1514414Y376412D01*
X1514961Y376537D01*
X1515519Y376600D01*
X1516081Y376600D01*
X1516639Y376537D01*
X1517186Y376412D01*
X1517716Y376227D01*
X1518222Y375983D01*
X1518698Y375684D01*
X1519137Y375334D01*
X1519534Y374937D01*
X1519884Y374498D01*
X1520183Y374022D01*
X1520427Y373516D01*
X1520612Y372986D01*
X1520737Y372439D01*
X1520800Y371881D01*
X1520800Y371319D01*
X862852Y136300D02*
X863753Y136229D01*
X864645Y136088D01*
X865524Y135877D01*
X866383Y135598D01*
X867218Y135252D01*
X868023Y134841D01*
X868794Y134369D01*
X869525Y133838D01*
X870212Y133251D01*
X870851Y132612D01*
X871438Y131925D01*
X871969Y131194D01*
X872441Y130423D01*
X872852Y129618D01*
X873198Y128783D01*
X873477Y127924D01*
X873688Y127045D01*
X873829Y126153D01*
X873900Y125252D01*
X873900Y124348D01*
X873829Y123447D01*
X873688Y122555D01*
X873477Y121676D01*
X873198Y120817D01*
X872852Y119982D01*
X872441Y119177D01*
X871969Y118406D01*
X871438Y117675D01*
X870851Y116988D01*
X870212Y116349D01*
X869525Y115762D01*
X868794Y115231D01*
X868023Y114759D01*
X867218Y114348D01*
X866383Y114002D01*
X865524Y113723D01*
X864645Y113512D01*
X863753Y113371D01*
X862852Y113300D01*
X861948Y113300D01*
X861047Y113371D01*
X860155Y113512D01*
X859276Y113723D01*
X858417Y114002D01*
X857582Y114348D01*
X856777Y114759D01*
X856006Y115231D01*
X855275Y115762D01*
X854588Y116349D01*
X853949Y116988D01*
X853362Y117675D01*
X852831Y118406D01*
X852359Y119177D01*
X851948Y119982D01*
X851602Y120817D01*
X851323Y121676D01*
X851112Y122555D01*
X850971Y123447D01*
X850900Y124348D01*
X850900Y125252D01*
X850971Y126153D01*
X851112Y127045D01*
X851323Y127924D01*
X851602Y128783D01*
X851948Y129618D01*
X852359Y130423D01*
X852831Y131194D01*
X853362Y131925D01*
X853949Y132612D01*
X854588Y133251D01*
X855275Y133838D01*
X856006Y134369D01*
X856777Y134841D01*
X857582Y135252D01*
X858417Y135598D01*
X859276Y135877D01*
X860155Y136088D01*
X861047Y136229D01*
X861948Y136300D01*
X862852Y136300D01*
X862852Y267700D02*
X863753Y267629D01*
X864645Y267488D01*
X865524Y267277D01*
X866383Y266998D01*
X867218Y266652D01*
X868023Y266241D01*
X868794Y265769D01*
X869525Y265238D01*
X870212Y264651D01*
X870851Y264012D01*
X871438Y263325D01*
X871969Y262594D01*
X872441Y261823D01*
X872852Y261018D01*
X873198Y260183D01*
X873477Y259324D01*
X873688Y258445D01*
X873829Y257553D01*
X873900Y256652D01*
X873900Y255748D01*
X873829Y254847D01*
X873688Y253955D01*
X873477Y253076D01*
X873198Y252217D01*
X872852Y251382D01*
X872441Y250577D01*
X871969Y249806D01*
X871438Y249075D01*
X870851Y248388D01*
X870212Y247749D01*
X869525Y247162D01*
X868794Y246631D01*
X868023Y246159D01*
X867218Y245748D01*
X866383Y245402D01*
X865524Y245123D01*
X864645Y244912D01*
X863753Y244771D01*
X862852Y244700D01*
X861948Y244700D01*
X861047Y244771D01*
X860155Y244912D01*
X859276Y245123D01*
X858417Y245402D01*
X857582Y245748D01*
X856777Y246159D01*
X856006Y246631D01*
X855275Y247162D01*
X854588Y247749D01*
X853949Y248388D01*
X853362Y249075D01*
X852831Y249806D01*
X852359Y250577D01*
X851948Y251382D01*
X851602Y252217D01*
X851323Y253076D01*
X851112Y253955D01*
X850971Y254847D01*
X850900Y255748D01*
X850900Y256652D01*
X850971Y257553D01*
X851112Y258445D01*
X851323Y259324D01*
X851602Y260183D01*
X851948Y261018D01*
X852359Y261823D01*
X852831Y262594D01*
X853362Y263325D01*
X853949Y264012D01*
X854588Y264651D01*
X855275Y265238D01*
X856006Y265769D01*
X856777Y266241D01*
X857582Y266652D01*
X858417Y266998D01*
X859276Y267277D01*
X860155Y267488D01*
X861047Y267629D01*
X861948Y267700D01*
X862852Y267700D01*
M02*
