G04 EAGLE Gerber RS-274X export*
G75*
%MOMM*%
%FSLAX34Y34*%
%LPD*%
%INSoldermask Top*%
%IPPOS*%
%AMOC8*
5,1,8,0,0,1.08239X$1,22.5*%
G01*
%ADD10R,2.540000X5.080000*%
%ADD11R,0.652400X3.152400*%
%ADD12C,1.152400*%
%ADD13P,1.396628X8X22.500000*%
%ADD14P,2.089446X8X22.500000*%
%ADD15C,1.272400*%
%ADD16R,1.676400X1.676400*%
%ADD17P,1.814519X8X112.500000*%
%ADD18R,4.152400X1.272400*%
%ADD19C,2.452400*%
%ADD20R,0.652400X0.752400*%


D10*
X1117600Y368300D03*
X1524000Y368300D03*
D11*
X1140800Y379300D03*
X1150800Y379300D03*
X1160800Y379300D03*
X1170800Y379300D03*
X1180800Y379300D03*
X1190800Y379300D03*
X1200800Y379300D03*
X1210800Y379300D03*
X1220800Y379300D03*
X1230800Y379300D03*
X1240800Y379300D03*
X1250800Y379300D03*
X1260800Y379300D03*
X1270800Y379300D03*
X1280800Y379300D03*
X1290800Y379300D03*
X1300800Y379300D03*
X1310800Y379300D03*
X1320800Y379300D03*
X1330800Y379300D03*
X1340800Y379300D03*
X1350800Y379300D03*
X1360800Y379300D03*
X1370800Y379300D03*
X1380800Y379300D03*
X1390800Y379300D03*
X1400800Y379300D03*
X1410800Y379300D03*
X1420800Y379300D03*
X1430800Y379300D03*
X1440800Y379300D03*
X1450800Y379300D03*
X1460800Y379300D03*
X1470800Y379300D03*
X1480800Y379300D03*
X1490800Y379300D03*
X1500800Y379300D03*
D12*
X1125800Y371600D03*
X1515800Y371600D03*
D13*
X139700Y901700D03*
X165100Y901700D03*
X165100Y482600D03*
X190500Y482600D03*
X355600Y444500D03*
X381000Y444500D03*
D14*
X495300Y431800D03*
X546100Y431800D03*
X520700Y533400D03*
X368300Y736600D03*
X419100Y736600D03*
X393700Y838200D03*
D15*
X603400Y933400D03*
X565150Y920750D03*
X628650Y908050D03*
X451000Y933400D03*
X412750Y920750D03*
X476250Y908050D03*
D16*
X993400Y402000D03*
D17*
X968000Y402000D03*
X993400Y427400D03*
X968000Y427400D03*
X993400Y452800D03*
X968000Y452800D03*
X993400Y478200D03*
X968000Y478200D03*
X993400Y503600D03*
X968000Y503600D03*
X993400Y529000D03*
X968000Y529000D03*
X993400Y554400D03*
X968000Y554400D03*
X993400Y579800D03*
X968000Y579800D03*
X993400Y605200D03*
X968000Y605200D03*
X993400Y630600D03*
X968000Y630600D03*
X993400Y656000D03*
X968000Y656000D03*
X993400Y681400D03*
X968000Y681400D03*
X993400Y706800D03*
X968000Y706800D03*
X993400Y732200D03*
X968000Y732200D03*
X993400Y757600D03*
X968000Y757600D03*
X993400Y783000D03*
X968000Y783000D03*
X993400Y808400D03*
X968000Y808400D03*
X993400Y833800D03*
X968000Y833800D03*
D16*
X739400Y402000D03*
D17*
X714000Y402000D03*
X739400Y427400D03*
X714000Y427400D03*
X739400Y452800D03*
X714000Y452800D03*
X739400Y478200D03*
X714000Y478200D03*
X739400Y503600D03*
X714000Y503600D03*
X739400Y529000D03*
X714000Y529000D03*
X739400Y554400D03*
X714000Y554400D03*
X739400Y579800D03*
X714000Y579800D03*
X739400Y605200D03*
X714000Y605200D03*
X739400Y630600D03*
X714000Y630600D03*
X739400Y656000D03*
X714000Y656000D03*
X739400Y681400D03*
X714000Y681400D03*
X739400Y706800D03*
X714000Y706800D03*
X739400Y732200D03*
X714000Y732200D03*
X739400Y757600D03*
X714000Y757600D03*
X739400Y783000D03*
X714000Y783000D03*
X739400Y808400D03*
X714000Y808400D03*
X739400Y833800D03*
X714000Y833800D03*
D18*
X825200Y180500D03*
X825200Y200500D03*
X825200Y155500D03*
X825200Y225500D03*
D19*
X862400Y124800D03*
X862400Y256200D03*
D20*
X160100Y355600D03*
X170100Y355600D03*
X134700Y685800D03*
X144700Y685800D03*
X401400Y546100D03*
X411400Y546100D03*
M02*
