G04 EAGLE Gerber RS-274X export*
G75*
%MOMM*%
%FSLAX34Y34*%
%LPD*%
%INSoldermask Bottom*%
%IPPOS*%
%AMOC8*
5,1,8,0,0,1.08239X$1,22.5*%
G01*
%ADD10C,1.152400*%
%ADD11P,1.396628X8X22.500000*%
%ADD12P,2.089446X8X22.500000*%
%ADD13C,1.272400*%
%ADD14R,1.676400X1.676400*%
%ADD15P,1.814519X8X112.500000*%
%ADD16C,2.452400*%


D10*
X1125800Y371600D03*
X1515800Y371600D03*
D11*
X139700Y901700D03*
X165100Y901700D03*
X165100Y482600D03*
X190500Y482600D03*
X355600Y444500D03*
X381000Y444500D03*
D12*
X495300Y431800D03*
X546100Y431800D03*
X520700Y533400D03*
X368300Y736600D03*
X419100Y736600D03*
X393700Y838200D03*
D13*
X603400Y933400D03*
X565150Y920750D03*
X628650Y908050D03*
X451000Y933400D03*
X412750Y920750D03*
X476250Y908050D03*
D14*
X993400Y402000D03*
D15*
X968000Y402000D03*
X993400Y427400D03*
X968000Y427400D03*
X993400Y452800D03*
X968000Y452800D03*
X993400Y478200D03*
X968000Y478200D03*
X993400Y503600D03*
X968000Y503600D03*
X993400Y529000D03*
X968000Y529000D03*
X993400Y554400D03*
X968000Y554400D03*
X993400Y579800D03*
X968000Y579800D03*
X993400Y605200D03*
X968000Y605200D03*
X993400Y630600D03*
X968000Y630600D03*
X993400Y656000D03*
X968000Y656000D03*
X993400Y681400D03*
X968000Y681400D03*
X993400Y706800D03*
X968000Y706800D03*
X993400Y732200D03*
X968000Y732200D03*
X993400Y757600D03*
X968000Y757600D03*
X993400Y783000D03*
X968000Y783000D03*
X993400Y808400D03*
X968000Y808400D03*
X993400Y833800D03*
X968000Y833800D03*
D14*
X739400Y402000D03*
D15*
X714000Y402000D03*
X739400Y427400D03*
X714000Y427400D03*
X739400Y452800D03*
X714000Y452800D03*
X739400Y478200D03*
X714000Y478200D03*
X739400Y503600D03*
X714000Y503600D03*
X739400Y529000D03*
X714000Y529000D03*
X739400Y554400D03*
X714000Y554400D03*
X739400Y579800D03*
X714000Y579800D03*
X739400Y605200D03*
X714000Y605200D03*
X739400Y630600D03*
X714000Y630600D03*
X739400Y656000D03*
X714000Y656000D03*
X739400Y681400D03*
X714000Y681400D03*
X739400Y706800D03*
X714000Y706800D03*
X739400Y732200D03*
X714000Y732200D03*
X739400Y757600D03*
X714000Y757600D03*
X739400Y783000D03*
X714000Y783000D03*
X739400Y808400D03*
X714000Y808400D03*
X739400Y833800D03*
X714000Y833800D03*
D16*
X862400Y124800D03*
X862400Y256200D03*
M02*
